<svg id="svg" version="1.1" xmlns="http://www.w3.org/2000/svg" xmlns:xlink="http://www.w3.org/1999/xlink" width="400" height="400" viewBox="0, 0, 400,400"><g id="svgg"><path id="path0" d="M366.400 102.267 C 366.070 102.380,365.249 102.718,364.575 103.019 C 363.901 103.320,362.551 103.692,361.575 103.846 C 360.599 104.000,359.440 104.353,359.000 104.632 C 358.560 104.911,357.140 105.331,355.845 105.566 C 354.550 105.801,353.290 106.158,353.045 106.360 C 352.800 106.561,351.540 106.921,350.245 107.160 C 348.950 107.398,347.670 107.776,347.400 108.000 C 347.130 108.224,345.850 108.602,344.555 108.840 C 343.260 109.079,342.000 109.439,341.755 109.640 C 341.510 109.842,340.254 110.202,338.963 110.441 C 337.672 110.679,336.163 111.106,335.608 111.390 C 335.054 111.673,333.810 112.037,332.844 112.197 C 331.878 112.358,330.348 112.825,329.444 113.236 C 328.540 113.646,327.325 113.986,326.744 113.991 C 326.163 113.996,324.903 114.356,323.944 114.791 C 322.985 115.226,321.698 115.586,321.084 115.591 C 320.470 115.596,319.300 115.934,318.484 116.343 C 317.668 116.752,316.144 117.199,315.097 117.336 C 314.050 117.473,312.790 117.845,312.297 118.162 C 311.804 118.478,310.500 118.868,309.400 119.028 C 308.300 119.187,307.040 119.547,306.600 119.828 C 306.160 120.109,304.740 120.531,303.445 120.766 C 302.150 121.001,300.870 121.376,300.600 121.600 C 300.330 121.824,299.067 122.200,297.792 122.435 C 296.518 122.671,295.098 123.098,294.637 123.384 C 294.177 123.670,292.912 124.017,291.826 124.155 C 290.740 124.292,289.465 124.658,288.993 124.968 C 288.520 125.278,287.248 125.656,286.167 125.809 C 285.085 125.962,283.796 126.340,283.303 126.651 C 282.810 126.961,281.550 127.329,280.503 127.469 C 279.456 127.608,277.973 128.055,277.206 128.461 C 276.439 128.868,275.269 129.204,274.606 129.209 C 273.943 129.214,272.680 129.544,271.800 129.943 C 270.920 130.342,269.390 130.797,268.400 130.954 C 267.410 131.112,266.225 131.486,265.767 131.786 C 265.308 132.086,264.054 132.463,262.980 132.624 C 261.905 132.785,260.300 133.247,259.413 133.650 C 258.526 134.053,257.298 134.386,256.684 134.391 C 256.070 134.396,254.862 134.760,254.000 135.200 C 253.138 135.640,251.908 136.000,251.267 136.000 C 250.626 136.000,249.314 136.342,248.351 136.760 C 247.388 137.178,245.794 137.651,244.809 137.811 C 243.824 137.970,242.654 138.334,242.209 138.619 C 241.764 138.904,240.500 139.264,239.400 139.419 C 238.300 139.574,237.175 139.881,236.899 140.100 C 236.623 140.320,235.363 140.734,234.099 141.020 C 232.835 141.305,231.080 141.815,230.200 142.152 C 229.320 142.489,228.150 142.779,227.600 142.796 C 227.050 142.813,225.880 143.175,225.000 143.600 C 224.120 144.025,222.860 144.380,222.200 144.389 C 221.540 144.398,220.460 144.687,219.800 145.033 C 219.140 145.378,217.627 145.841,216.437 146.062 C 215.248 146.283,213.898 146.700,213.437 146.989 C 212.977 147.277,211.700 147.637,210.600 147.788 C 209.500 147.939,208.196 148.322,207.703 148.638 C 207.210 148.955,205.950 149.329,204.903 149.469 C 203.856 149.608,202.373 150.055,201.606 150.461 C 199.843 151.395,198.557 151.395,196.794 150.461 C 196.027 150.055,194.512 149.604,193.426 149.459 C 192.340 149.314,191.080 148.953,190.626 148.656 C 190.172 148.360,188.902 147.984,187.805 147.820 C 186.708 147.656,185.355 147.287,184.797 146.999 C 184.240 146.710,182.745 146.282,181.474 146.048 C 180.204 145.813,178.773 145.346,178.293 145.010 C 177.814 144.675,176.839 144.400,176.126 144.400 C 175.413 144.400,173.968 144.066,172.915 143.657 C 171.862 143.248,170.222 142.794,169.272 142.648 C 168.321 142.501,167.151 142.135,166.672 141.834 C 166.192 141.533,164.900 141.163,163.800 141.012 C 162.700 140.861,161.440 140.508,161.000 140.228 C 160.560 139.947,159.300 139.587,158.200 139.428 C 157.100 139.268,155.840 138.911,155.400 138.634 C 154.960 138.357,153.480 137.913,152.111 137.647 C 150.742 137.382,149.122 136.903,148.511 136.585 C 147.900 136.266,146.860 135.998,146.200 135.989 C 145.540 135.980,144.280 135.625,143.400 135.200 C 142.520 134.775,141.260 134.417,140.600 134.405 C 139.940 134.392,138.674 134.053,137.787 133.650 C 136.900 133.247,135.280 132.787,134.187 132.627 C 133.094 132.468,131.796 132.078,131.303 131.762 C 130.810 131.445,129.550 131.077,128.503 130.945 C 127.456 130.813,126.211 130.462,125.736 130.167 C 125.261 129.871,123.788 129.455,122.463 129.241 C 121.137 129.028,119.636 128.593,119.126 128.274 C 118.617 127.956,117.344 127.587,116.297 127.455 C 115.250 127.323,113.990 126.961,113.497 126.651 C 113.004 126.340,111.700 125.963,110.600 125.812 C 109.500 125.661,108.225 125.297,107.767 125.003 C 107.308 124.709,106.048 124.341,104.967 124.186 C 103.885 124.030,102.245 123.564,101.322 123.151 C 100.399 122.738,99.139 122.394,98.522 122.386 C 97.905 122.379,96.680 122.025,95.800 121.600 C 94.920 121.175,93.660 120.817,93.000 120.805 C 92.340 120.792,91.042 120.439,90.117 120.018 C 89.191 119.598,87.571 119.132,86.517 118.984 C 85.462 118.835,84.196 118.460,83.703 118.149 C 83.210 117.839,81.950 117.477,80.903 117.345 C 79.856 117.213,78.620 116.868,78.157 116.580 C 77.693 116.292,76.173 115.849,74.779 115.596 C 73.385 115.343,71.880 114.881,71.433 114.568 C 70.987 114.256,70.077 113.992,69.411 113.982 C 68.745 113.973,67.480 113.689,66.600 113.352 C 65.720 113.015,64.010 112.497,62.800 112.200 C 61.590 111.903,59.880 111.385,59.000 111.048 C 58.120 110.711,56.950 110.426,56.400 110.415 C 55.850 110.404,54.900 110.134,54.290 109.816 C 53.679 109.497,52.239 109.062,51.090 108.849 C 49.940 108.635,48.460 108.178,47.800 107.833 C 47.140 107.487,46.150 107.196,45.600 107.185 C 45.050 107.174,43.880 106.888,43.000 106.549 C 42.120 106.210,40.419 105.760,39.219 105.548 C 38.019 105.337,36.806 104.971,36.523 104.736 C 36.240 104.501,34.701 104.060,33.104 103.755 C 31.507 103.451,30.141 103.022,30.067 102.801 C 29.993 102.580,29.453 102.411,28.867 102.425 C 27.830 102.450,27.825 102.461,28.700 102.812 C 29.195 103.011,29.600 103.355,29.600 103.577 C 29.600 103.798,30.885 105.199,32.456 106.690 C 37.933 111.888,39.154 113.061,48.814 122.400 C 54.161 127.570,59.721 132.925,61.168 134.300 C 62.616 135.675,65.821 138.735,68.291 141.100 C 70.761 143.465,73.371 145.923,74.091 146.562 C 74.811 147.201,79.976 152.151,85.570 157.562 C 91.163 162.973,96.974 168.570,98.482 170.000 C 99.991 171.430,103.184 174.490,105.578 176.800 C 107.973 179.110,110.892 181.877,112.066 182.948 C 114.006 184.719,126.468 196.701,135.209 205.200 C 137.132 207.070,140.932 210.708,143.653 213.285 C 157.469 226.369,157.107 225.911,158.004 231.424 C 158.213 232.707,158.637 234.307,158.947 234.979 C 159.257 235.651,159.637 237.267,159.793 238.572 C 159.948 239.876,160.309 241.316,160.595 241.772 C 160.881 242.227,161.243 243.680,161.399 245.000 C 161.555 246.319,161.916 247.852,162.203 248.405 C 162.489 248.958,162.846 250.308,162.997 251.405 C 163.148 252.502,163.616 254.352,164.036 255.515 C 164.456 256.678,164.800 258.067,164.800 258.601 C 164.800 259.135,165.096 260.433,165.458 261.486 C 165.820 262.539,166.349 264.570,166.634 266.000 C 167.295 269.326,168.252 273.128,169.229 276.308 C 169.653 277.688,170.000 279.269,170.000 279.821 C 170.000 280.374,170.258 281.443,170.573 282.198 C 170.888 282.952,171.271 284.431,171.422 285.485 C 171.574 286.538,171.939 287.990,172.234 288.712 C 172.528 289.433,172.964 291.143,173.202 292.512 C 173.440 293.880,173.897 295.679,174.217 296.508 C 174.538 297.338,174.797 298.418,174.794 298.908 C 174.791 299.399,175.142 300.970,175.573 302.400 C 176.005 303.830,176.644 306.170,176.993 307.600 C 178.226 312.645,179.160 316.625,179.624 318.800 C 179.882 320.010,180.418 321.990,180.816 323.200 C 181.214 324.410,181.640 326.258,181.763 327.307 C 181.886 328.356,182.241 329.706,182.552 330.307 C 182.863 330.909,183.252 332.481,183.416 333.800 C 183.581 335.120,183.949 336.560,184.234 337.000 C 184.519 337.440,184.867 338.790,185.008 340.000 C 185.149 341.210,185.610 343.043,186.032 344.074 C 186.454 345.105,186.800 346.600,186.800 347.396 C 186.800 348.192,187.136 349.599,187.547 350.522 C 187.959 351.445,188.411 353.246,188.554 354.524 C 188.696 355.802,189.065 357.242,189.374 357.724 C 189.683 358.206,190.059 359.680,190.210 361.000 C 190.361 362.320,190.727 363.785,191.023 364.256 C 191.319 364.727,191.674 366.077,191.812 367.256 C 191.951 368.435,192.410 370.243,192.832 371.274 C 193.254 372.305,193.608 373.745,193.618 374.474 C 193.627 375.203,193.914 376.520,194.254 377.400 C 194.595 378.280,195.050 380.167,195.266 381.594 C 195.482 383.021,195.860 384.431,196.105 384.727 C 196.351 385.023,196.773 386.555,197.043 388.132 C 197.314 389.710,197.811 391.720,198.150 392.600 C 198.488 393.480,198.773 394.845,198.782 395.633 C 198.822 398.864,200.811 395.758,201.362 391.605 C 201.522 390.397,201.907 388.867,202.219 388.205 C 202.530 387.542,202.951 385.830,203.155 384.400 C 203.359 382.970,203.811 381.260,204.160 380.600 C 204.509 379.940,204.796 378.732,204.798 377.915 C 204.799 377.098,205.134 375.568,205.543 374.515 C 205.952 373.462,206.405 371.554,206.550 370.276 C 206.694 368.998,207.061 367.558,207.364 367.076 C 207.667 366.594,208.039 365.120,208.190 363.800 C 208.341 362.480,208.703 361.027,208.995 360.572 C 209.286 360.116,209.653 358.676,209.810 357.372 C 209.968 356.067,210.435 354.245,210.848 353.322 C 211.262 352.399,211.600 350.904,211.600 350.000 C 211.600 349.096,211.936 347.601,212.347 346.678 C 212.759 345.755,213.211 343.954,213.354 342.676 C 213.496 341.398,213.861 339.958,214.164 339.476 C 214.467 338.994,214.839 337.520,214.990 336.200 C 215.141 334.880,215.503 333.427,215.795 332.972 C 216.086 332.516,216.455 331.076,216.615 329.772 C 216.774 328.467,217.241 326.538,217.652 325.485 C 218.064 324.432,218.408 322.992,218.418 322.285 C 218.427 321.578,218.714 320.280,219.054 319.400 C 219.395 318.520,219.849 316.643,220.063 315.230 C 220.277 313.816,220.689 312.196,220.979 311.630 C 221.269 311.063,221.634 309.610,221.791 308.400 C 221.947 307.190,222.338 305.660,222.659 305.000 C 222.980 304.340,223.398 302.578,223.586 301.084 C 223.775 299.590,224.116 298.143,224.343 297.868 C 224.571 297.594,224.947 296.183,225.179 294.734 C 225.410 293.285,225.846 291.491,226.148 290.749 C 226.450 290.007,226.820 288.427,226.970 287.237 C 227.121 286.048,227.487 284.606,227.783 284.032 C 228.080 283.459,228.441 282.092,228.586 280.995 C 228.730 279.898,229.090 278.280,229.384 277.400 C 229.679 276.520,230.135 274.630,230.398 273.200 C 230.660 271.770,231.016 270.420,231.188 270.200 C 231.361 269.980,231.706 268.601,231.956 267.136 C 232.206 265.670,232.679 263.831,233.005 263.049 C 233.332 262.266,233.600 261.082,233.600 260.417 C 233.600 259.752,233.960 258.262,234.400 257.104 C 234.840 255.947,235.200 254.499,235.200 253.887 C 235.200 253.275,235.564 251.693,236.010 250.370 C 236.455 249.048,236.931 247.119,237.066 246.083 C 237.202 245.047,237.547 243.733,237.834 243.163 C 238.121 242.592,238.479 241.152,238.630 239.963 C 238.780 238.773,239.150 237.193,239.452 236.451 C 239.754 235.709,240.187 233.931,240.416 232.500 C 240.644 231.070,241.094 229.391,241.416 228.770 C 241.737 228.148,242.000 227.145,242.000 226.540 C 242.000 225.660,242.937 224.538,246.700 220.916 C 249.285 218.427,254.440 213.468,258.156 209.896 C 261.872 206.323,266.912 201.446,269.356 199.059 C 281.409 187.283,299.668 169.603,307.214 162.400 C 313.499 156.402,319.328 150.768,327.419 142.873 C 337.314 133.217,347.444 123.405,354.749 116.400 C 367.269 104.394,369.166 102.499,368.915 102.248 C 368.627 101.961,367.271 101.971,366.400 102.267 " stroke="none" fill="#3264c8" fill-rule="evenodd"></path><path id="path1" d="M-0.000 93.414 L -0.000 186.828 2.100 186.554 C 3.255 186.404,4.827 185.948,5.594 185.540 C 6.361 185.133,7.493 184.800,8.110 184.800 C 8.727 184.800,9.900 184.465,10.716 184.056 C 11.532 183.647,13.010 183.188,14.000 183.036 C 14.990 182.884,16.164 182.521,16.609 182.230 C 17.054 181.939,18.224 181.568,19.209 181.406 C 20.194 181.244,21.755 180.771,22.678 180.356 C 23.601 179.940,24.771 179.596,25.278 179.591 C 25.785 179.586,26.985 179.226,27.944 178.791 C 28.903 178.356,29.936 178.000,30.240 178.000 C 30.544 178.000,32.190 177.542,33.896 176.983 C 38.461 175.488,41.262 174.602,46.420 173.021 C 52.748 171.082,52.178 171.814,54.211 163.006 C 54.764 160.611,55.811 157.855,56.538 156.885 C 56.826 156.500,58.753 158.182,64.162 163.541 C 68.143 167.485,75.242 174.480,79.937 179.086 C 89.717 188.679,89.926 189.050,86.000 189.846 C 84.790 190.091,83.170 190.576,82.400 190.923 C 81.630 191.271,80.347 191.660,79.548 191.787 C 78.317 191.983,78.059 192.206,77.848 193.259 C 77.500 194.999,77.549 207.304,77.906 207.846 C 78.310 208.460,81.407 209.996,82.284 210.018 C 82.678 210.027,83.720 210.312,84.600 210.650 C 85.480 210.989,87.100 211.512,88.200 211.813 C 90.289 212.385,93.354 213.337,95.400 214.051 C 96.659 214.489,99.641 215.341,105.000 216.791 C 109.924 218.123,110.466 218.781,111.764 225.000 C 112.040 226.320,112.485 227.812,112.755 228.315 C 113.608 229.909,113.524 230.024,105.424 238.400 C 103.190 240.710,99.758 244.400,97.797 246.600 C 95.835 248.800,93.639 251.161,92.915 251.847 C 92.192 252.533,91.600 253.276,91.600 253.498 C 91.600 253.720,91.349 254.111,91.041 254.366 C 90.426 254.876,90.438 254.902,94.000 260.968 C 94.990 262.654,96.112 264.611,96.492 265.316 C 98.022 268.152,99.139 268.392,104.200 266.976 C 106.255 266.400,109.931 265.600,115.200 264.579 C 116.850 264.260,118.997 263.729,119.971 263.399 C 120.945 263.070,122.310 262.800,123.004 262.800 C 123.698 262.800,125.470 262.422,126.943 261.959 C 130.505 260.842,130.794 260.962,135.200 265.395 C 139.555 269.776,139.744 270.448,138.041 275.487 C 137.578 276.855,137.200 278.447,137.200 279.025 C 137.200 279.603,136.861 281.274,136.447 282.738 C 135.744 285.222,135.521 286.179,134.358 291.700 C 134.114 292.855,133.562 294.982,133.131 296.427 C 132.700 297.871,132.404 299.845,132.473 300.812 L 132.600 302.570 137.200 305.266 C 139.730 306.748,142.363 308.222,143.051 308.540 C 143.739 308.858,144.410 309.293,144.542 309.506 C 145.072 310.364,146.806 309.382,150.019 306.404 C 153.316 303.348,154.400 302.914,154.400 304.647 C 154.400 304.950,154.745 306.233,155.167 307.498 C 155.588 308.764,156.056 310.700,156.206 311.800 C 156.356 312.900,156.651 314.121,156.860 314.513 C 157.070 314.905,157.498 316.681,157.810 318.459 C 158.123 320.238,158.545 321.897,158.748 322.146 C 158.951 322.396,159.315 323.860,159.558 325.400 C 159.801 326.940,160.262 328.920,160.582 329.800 C 160.903 330.680,161.173 331.867,161.182 332.437 C 161.192 333.008,161.533 334.448,161.939 335.637 C 162.346 336.827,162.799 338.700,162.946 339.800 C 163.093 340.900,163.463 342.520,163.769 343.399 C 164.642 345.910,163.613 346.247,159.496 344.800 C 158.244 344.360,156.788 344.000,156.260 344.000 C 155.732 344.000,154.527 343.727,153.583 343.394 C 151.701 342.730,152.020 342.589,149.035 345.400 C 148.567 345.840,146.675 347.550,144.829 349.200 C 142.983 350.850,140.991 352.650,140.403 353.200 C 135.694 357.602,129.627 363.278,128.218 364.600 C 127.280 365.480,124.562 368.000,122.177 370.200 C 119.792 372.400,117.089 374.920,116.169 375.800 C 115.250 376.680,113.780 378.088,112.903 378.929 L 111.308 380.457 109.754 379.649 C 108.899 379.205,107.750 378.615,107.200 378.337 C 106.650 378.059,105.152 377.150,103.872 376.316 C 102.591 375.482,101.413 374.800,101.253 374.800 C 101.094 374.800,99.649 373.990,98.044 373.000 C 96.438 372.010,95.044 371.200,94.946 371.200 C 94.848 371.200,94.280 370.865,93.684 370.455 C 93.088 370.045,91.659 369.129,90.510 368.419 L 88.419 367.129 88.999 365.741 C 89.318 364.978,89.689 363.419,89.825 362.277 C 89.960 361.135,90.415 359.164,90.836 357.898 C 91.256 356.633,91.600 355.058,91.600 354.400 C 91.600 353.742,91.937 352.167,92.350 350.902 C 92.762 349.636,93.291 347.520,93.524 346.200 C 94.198 342.387,95.206 338.008,96.035 335.292 C 96.456 333.912,96.800 332.270,96.800 331.642 C 96.800 331.014,97.057 329.773,97.370 328.884 C 97.684 327.994,98.062 326.397,98.209 325.333 C 98.356 324.270,98.801 322.317,99.197 320.993 C 99.592 319.670,100.047 317.364,100.207 315.870 L 100.498 313.154 93.949 306.539 L 87.400 299.925 85.000 300.139 C 83.680 300.257,81.970 300.617,81.200 300.938 C 80.430 301.259,78.726 301.655,77.412 301.818 C 76.099 301.981,74.479 302.336,73.812 302.608 C 73.146 302.879,71.700 303.226,70.600 303.378 C 69.500 303.531,67.456 304.003,66.058 304.428 C 64.660 304.852,63.108 305.200,62.610 305.200 C 62.112 305.200,60.577 305.560,59.200 306.000 C 57.823 306.440,56.096 306.800,55.363 306.800 C 54.630 306.800,53.116 307.160,52.000 307.600 C 50.884 308.040,49.348 308.400,48.587 308.400 C 47.826 308.400,46.167 308.747,44.902 309.171 C 43.636 309.596,41.628 310.066,40.439 310.217 C 39.250 310.368,37.681 310.741,36.952 311.046 C 34.800 311.945,32.934 311.771,32.322 310.615 C 31.719 309.477,26.619 300.611,25.327 298.456 C 24.848 297.655,24.167 296.460,23.815 295.800 C 23.463 295.140,22.705 293.790,22.131 292.800 C 19.765 288.718,19.579 289.554,23.905 284.826 C 26.032 282.502,28.048 280.317,28.386 279.972 C 28.724 279.627,30.800 277.388,33.000 274.996 C 36.655 271.023,40.645 266.727,43.200 264.014 C 43.750 263.429,46.090 260.902,48.400 258.396 C 50.710 255.890,52.968 253.471,53.417 253.020 C 53.866 252.569,54.922 251.347,55.762 250.304 L 57.290 248.408 56.645 246.796 C 56.290 245.909,55.999 244.692,55.998 244.092 C 55.996 243.491,55.733 242.498,55.413 241.883 C 55.092 241.269,54.660 239.919,54.451 238.883 C 53.319 233.250,52.231 229.907,51.424 229.579 C 50.643 229.261,44.267 227.236,36.800 224.934 C 34.930 224.357,32.110 223.461,30.533 222.943 C 28.956 222.424,27.336 221.994,26.933 221.987 C 26.530 221.980,25.861 221.718,25.446 221.404 C 25.031 221.090,23.867 220.709,22.859 220.558 C 21.851 220.407,20.300 219.953,19.413 219.550 C 18.526 219.147,17.343 218.814,16.785 218.809 C 16.226 218.804,15.104 218.461,14.291 218.046 C 13.478 217.632,11.955 217.168,10.906 217.015 C 9.858 216.863,8.623 216.496,8.163 216.201 C 7.702 215.905,6.299 215.474,5.045 215.242 C 3.791 215.010,2.373 214.546,1.893 214.210 C 1.414 213.875,0.792 213.600,0.511 213.600 C 0.098 213.600,0.000 231.437,0.000 306.800 L 0.000 400.000 99.427 400.000 C 193.931 400.000,198.844 399.965,198.648 399.300 C 198.535 398.915,198.328 397.880,198.188 397.000 C 198.047 396.120,197.740 394.775,197.506 394.010 C 197.271 393.246,196.737 391.176,196.319 389.410 C 195.901 387.645,195.220 384.850,194.805 383.200 C 194.391 381.550,193.851 379.300,193.607 378.200 C 193.362 377.100,192.831 375.030,192.427 373.600 C 191.284 369.555,190.414 366.054,189.795 363.000 C 189.483 361.460,188.959 359.480,188.631 358.600 C 188.303 357.720,188.027 356.512,188.018 355.915 C 188.008 355.318,187.640 353.916,187.200 352.800 C 186.760 351.684,186.400 350.238,186.400 349.587 C 186.400 348.936,186.053 347.367,185.629 346.102 C 185.205 344.836,184.733 342.990,184.582 342.000 C 184.430 341.010,184.078 339.750,183.800 339.200 C 183.521 338.650,183.163 337.210,183.003 336.000 C 182.842 334.790,182.461 333.193,182.155 332.451 C 181.850 331.709,181.410 329.915,181.179 328.466 C 180.947 327.017,180.597 325.637,180.400 325.400 C 180.203 325.163,179.846 323.738,179.605 322.234 C 179.365 320.730,178.930 319.027,178.639 318.450 C 178.347 317.872,177.984 316.427,177.832 315.237 C 177.680 314.048,177.319 312.608,177.030 312.037 C 176.741 311.467,176.380 310.100,176.230 309.000 C 176.079 307.900,175.605 305.964,175.178 304.698 C 174.750 303.433,174.400 301.948,174.400 301.400 C 174.400 300.852,174.064 299.367,173.653 298.102 C 173.242 296.836,172.717 294.900,172.484 293.800 C 172.252 292.700,171.853 290.990,171.596 290.000 C 171.340 289.010,170.681 286.400,170.133 284.200 C 169.584 282.000,168.869 279.210,168.543 278.000 C 168.217 276.790,167.707 274.720,167.410 273.400 C 167.112 272.080,166.484 269.470,166.014 267.600 C 165.544 265.730,164.833 262.850,164.434 261.200 C 163.152 255.893,162.742 254.255,161.982 251.400 C 160.872 247.230,159.999 243.689,159.417 241.000 C 158.767 237.994,157.781 234.179,156.776 230.772 C 156.349 229.326,156.000 227.694,156.000 227.144 C 156.000 226.396,155.035 225.246,152.166 222.572 C 150.057 220.608,147.107 217.830,145.612 216.400 C 144.116 214.970,141.297 212.296,139.346 210.457 C 137.396 208.619,133.453 204.839,130.583 202.057 C 117.725 189.592,112.143 184.217,106.573 178.942 C 103.288 175.830,99.504 172.230,98.164 170.942 C 96.824 169.654,92.249 165.270,87.997 161.200 C 83.745 157.130,78.793 152.360,76.991 150.600 C 75.190 148.840,71.058 144.880,67.808 141.800 C 64.559 138.720,60.978 135.318,59.850 134.240 C 53.540 128.209,48.430 123.301,40.443 115.600 C 35.537 110.870,30.480 106.010,29.206 104.800 C 25.063 100.865,27.176 100.602,36.800 103.855 C 37.790 104.189,39.493 104.644,40.585 104.865 C 41.676 105.086,43.029 105.505,43.590 105.795 C 44.151 106.085,45.508 106.453,46.605 106.613 C 47.702 106.773,49.076 107.145,49.658 107.441 C 50.240 107.736,51.500 108.097,52.458 108.244 C 53.416 108.391,54.699 108.763,55.310 109.071 C 55.920 109.379,57.401 109.812,58.600 110.034 C 59.798 110.255,61.279 110.697,61.890 111.016 C 62.500 111.334,63.450 111.604,64.000 111.615 C 64.550 111.626,65.720 111.911,66.600 112.247 C 67.480 112.584,69.356 113.120,70.769 113.438 C 72.182 113.756,73.532 114.176,73.769 114.371 C 74.006 114.566,75.260 114.921,76.555 115.160 C 77.850 115.398,79.110 115.758,79.355 115.960 C 79.600 116.161,80.831 116.516,82.090 116.748 C 83.350 116.979,84.880 117.423,85.490 117.733 C 86.101 118.043,87.415 118.414,88.411 118.559 C 89.406 118.704,90.711 119.076,91.308 119.386 C 91.906 119.697,93.246 120.078,94.285 120.234 C 95.324 120.389,96.900 120.847,97.787 121.250 C 98.674 121.653,99.875 121.986,100.456 121.991 C 101.037 121.996,102.297 122.356,103.256 122.791 C 104.215 123.226,105.360 123.584,105.800 123.585 C 106.240 123.587,107.860 123.972,109.400 124.440 C 110.940 124.908,113.730 125.736,115.600 126.280 C 117.470 126.824,119.810 127.546,120.800 127.884 C 121.790 128.223,123.320 128.630,124.200 128.789 C 125.080 128.949,126.790 129.383,128.000 129.754 C 131.591 130.855,135.208 131.919,138.400 132.811 C 142.786 134.037,146.162 135.017,150.000 136.176 C 151.870 136.741,153.760 137.209,154.200 137.215 C 154.640 137.222,155.720 137.575,156.600 138.000 C 157.480 138.425,158.740 138.783,159.400 138.795 C 160.060 138.808,161.385 139.174,162.344 139.609 C 163.303 140.044,164.473 140.408,164.944 140.418 C 165.415 140.427,166.520 140.713,167.400 141.054 C 168.280 141.394,170.125 141.904,171.500 142.188 C 172.876 142.471,174.244 142.904,174.541 143.151 C 174.838 143.397,175.963 143.714,177.040 143.856 C 178.118 143.997,179.499 144.364,180.110 144.672 C 180.720 144.979,182.250 145.421,183.510 145.652 C 184.769 145.884,186.000 146.239,186.245 146.440 C 186.490 146.642,187.746 147.002,189.037 147.241 C 190.328 147.479,191.837 147.906,192.392 148.190 C 192.946 148.473,194.210 148.838,195.200 149.000 C 196.190 149.162,197.495 149.548,198.100 149.858 C 199.046 150.342,199.354 150.342,200.300 149.858 C 200.905 149.548,202.210 149.162,203.200 149.000 C 204.190 148.838,205.457 148.472,206.015 148.186 C 206.574 147.901,207.924 147.486,209.015 147.265 C 210.107 147.044,211.810 146.592,212.800 146.262 C 213.790 145.931,215.950 145.273,217.600 144.800 C 219.250 144.327,221.410 143.670,222.400 143.340 C 223.390 143.010,225.190 142.497,226.400 142.200 C 227.610 141.903,229.320 141.385,230.200 141.048 C 231.080 140.711,232.190 140.427,232.667 140.418 C 233.144 140.408,234.314 140.068,235.267 139.662 C 236.220 139.257,237.741 138.808,238.647 138.666 C 239.553 138.524,240.813 138.137,241.447 137.806 C 242.081 137.476,243.011 137.204,243.513 137.202 C 244.015 137.201,245.095 136.919,245.913 136.576 C 246.731 136.232,248.480 135.704,249.800 135.401 C 251.120 135.098,253.010 134.590,254.000 134.271 C 254.990 133.952,257.150 133.305,258.800 132.832 C 263.190 131.574,266.732 130.517,269.000 129.786 C 270.100 129.432,271.838 128.989,272.861 128.801 C 273.885 128.614,275.271 128.177,275.942 127.830 C 276.612 127.484,277.574 127.192,278.080 127.182 C 278.586 127.173,279.720 126.891,280.600 126.556 C 282.324 125.900,286.460 124.687,290.000 123.799 C 291.210 123.496,293.010 122.983,294.000 122.659 C 298.782 121.097,301.135 120.415,302.600 120.167 C 303.480 120.018,304.425 119.717,304.701 119.498 C 304.977 119.279,306.237 118.866,307.501 118.580 C 308.765 118.295,310.520 117.785,311.400 117.448 C 312.280 117.111,313.450 116.826,314.000 116.815 C 314.550 116.804,315.540 116.513,316.200 116.167 C 316.860 115.822,318.390 115.356,319.600 115.133 C 320.810 114.909,321.994 114.566,322.231 114.371 C 322.468 114.176,323.818 113.756,325.231 113.438 C 326.644 113.120,328.520 112.584,329.400 112.247 C 330.280 111.911,331.455 111.627,332.011 111.618 C 332.567 111.608,333.385 111.346,333.828 111.036 C 334.271 110.725,335.656 110.282,336.907 110.051 C 338.157 109.820,339.716 109.354,340.370 109.015 C 341.025 108.677,341.974 108.392,342.480 108.382 C 342.986 108.373,344.120 108.089,345.000 107.752 C 345.880 107.415,347.590 106.903,348.800 106.615 C 350.010 106.326,351.788 105.800,352.750 105.445 C 353.713 105.090,354.847 104.800,355.270 104.800 C 355.693 104.800,356.575 104.523,357.230 104.185 C 357.884 103.846,359.450 103.379,360.710 103.148 C 361.969 102.916,363.180 102.580,363.400 102.401 C 363.620 102.222,364.929 101.854,366.310 101.584 C 367.690 101.313,368.916 100.936,369.033 100.746 C 369.329 100.268,371.097 100.310,371.401 100.802 C 371.655 101.212,367.408 105.512,355.202 117.200 C 351.411 120.830,346.649 125.420,344.620 127.400 C 325.929 145.635,315.106 156.120,305.392 165.400 C 301.247 169.360,293.973 176.388,289.228 181.018 C 269.831 199.943,267.475 202.223,256.187 213.000 C 243.365 225.242,242.913 225.731,242.607 227.683 C 242.459 228.627,242.002 230.570,241.592 232.000 C 241.182 233.430,240.649 235.500,240.407 236.600 C 240.165 237.700,239.602 240.040,239.155 241.800 C 238.708 243.560,238.007 246.440,237.597 248.200 C 237.186 249.960,236.670 252.030,236.449 252.800 C 236.061 254.152,235.259 257.418,234.188 262.000 C 233.000 267.085,232.274 269.950,231.553 272.400 C 231.133 273.830,230.791 275.347,230.794 275.772 C 230.797 276.196,230.448 277.726,230.018 279.172 C 229.155 282.071,228.263 285.627,227.402 289.600 C 226.667 292.993,225.706 296.768,224.754 300.000 C 224.333 301.430,223.991 303.004,223.994 303.498 C 223.997 303.993,223.653 305.433,223.229 306.698 C 222.805 307.964,222.334 309.810,222.182 310.800 C 222.031 311.790,221.739 312.921,221.533 313.313 C 221.327 313.705,220.902 315.481,220.590 317.259 C 220.277 319.038,219.859 320.697,219.661 320.946 C 219.463 321.196,219.178 322.300,219.028 323.400 C 218.878 324.500,218.405 326.436,217.978 327.702 C 217.550 328.967,217.203 330.407,217.206 330.902 C 217.209 331.396,216.858 332.970,216.427 334.400 C 215.483 337.527,214.569 341.214,213.798 345.000 C 213.484 346.540,212.959 348.520,212.631 349.400 C 212.303 350.280,212.027 351.460,212.018 352.022 C 212.008 352.585,211.662 354.115,211.250 355.422 C 210.837 356.730,210.287 358.790,210.028 360.000 C 209.335 363.225,208.133 368.282,207.460 370.800 C 206.487 374.439,205.628 377.968,203.711 386.205 C 203.301 387.968,202.846 389.602,202.701 389.837 C 202.556 390.071,202.248 391.446,202.017 392.890 C 201.787 394.335,201.242 396.301,200.808 397.259 C 200.373 398.216,200.014 399.225,200.009 399.500 C 200.002 399.899,220.262 400.000,300.000 400.000 L 400.000 400.000 400.000 306.773 L 400.000 213.546 399.100 213.827 C 398.605 213.981,397.845 214.354,397.411 214.654 C 396.977 214.954,396.074 215.200,395.405 215.200 C 394.736 215.200,393.561 215.533,392.794 215.939 C 392.027 216.346,390.590 216.805,389.600 216.959 C 388.610 217.114,387.408 217.497,386.928 217.811 C 386.449 218.125,385.279 218.500,384.328 218.645 C 383.378 218.789,382.150 219.147,381.600 219.439 C 381.050 219.732,379.565 220.247,378.300 220.585 C 372.251 222.202,371.346 222.466,370.600 222.833 C 370.160 223.050,368.810 223.476,367.600 223.780 C 366.390 224.084,363.600 224.887,361.400 225.563 C 359.200 226.240,355.330 227.404,352.800 228.151 C 347.065 229.845,346.649 230.515,344.203 242.000 C 343.899 243.430,343.368 245.269,343.025 246.087 C 341.964 248.613,341.215 247.595,353.842 260.793 C 355.844 262.887,358.437 265.680,359.603 267.000 C 360.769 268.320,362.010 269.693,362.362 270.051 C 366.047 273.812,374.117 282.483,379.118 288.056 C 380.169 289.228,380.242 288.952,377.805 293.000 C 377.275 293.880,376.673 294.961,376.467 295.403 C 376.262 295.845,375.507 297.195,374.791 298.403 C 372.915 301.567,371.968 303.210,371.105 304.800 C 370.686 305.570,369.914 306.920,369.388 307.800 C 368.862 308.680,368.150 309.895,367.806 310.500 C 367.080 311.774,365.398 311.971,363.149 311.044 C 362.407 310.739,360.810 310.360,359.600 310.204 C 358.390 310.047,356.371 309.577,355.113 309.159 C 353.855 308.742,352.308 308.400,351.675 308.400 C 351.043 308.400,349.479 308.040,348.200 307.600 C 346.921 307.160,345.359 306.800,344.729 306.800 C 344.099 306.800,342.282 306.456,340.692 306.035 C 335.900 304.767,332.352 303.937,329.400 303.392 C 327.860 303.108,326.150 302.689,325.600 302.461 C 325.050 302.232,323.353 301.845,321.829 301.599 C 320.304 301.353,318.738 300.981,318.347 300.772 C 317.956 300.563,316.582 300.281,315.292 300.147 L 312.948 299.901 306.476 306.373 C 298.651 314.198,298.946 313.223,301.388 323.200 C 301.738 324.630,302.222 326.610,302.463 327.600 C 302.704 328.590,303.138 330.697,303.427 332.282 C 303.716 333.867,304.124 335.487,304.333 335.882 C 304.542 336.277,304.913 337.860,305.157 339.400 C 305.400 340.940,305.862 342.920,306.182 343.800 C 306.503 344.680,306.773 346.036,306.782 346.814 C 306.792 347.591,307.160 349.252,307.600 350.504 C 308.040 351.756,308.400 353.296,308.400 353.927 C 308.400 354.558,308.734 356.048,309.143 357.237 C 309.551 358.427,310.016 360.448,310.175 361.729 C 310.334 363.009,310.736 364.707,311.068 365.500 C 311.758 367.153,311.499 367.484,308.000 369.429 C 307.010 369.979,305.480 370.860,304.600 371.387 C 303.720 371.914,302.460 372.629,301.800 372.975 C 301.140 373.322,299.880 374.048,299.000 374.589 C 298.120 375.129,296.860 375.861,296.200 376.213 C 295.540 376.566,294.280 377.289,293.400 377.819 C 288.562 380.734,288.568 380.735,283.768 376.104 C 281.770 374.177,278.260 370.893,275.968 368.806 C 272.113 365.296,270.486 363.768,263.132 356.747 C 260.795 354.517,255.880 349.925,250.064 344.540 L 248.272 342.881 246.686 343.440 C 245.813 343.748,244.717 344.008,244.250 344.018 C 243.782 344.027,242.680 344.310,241.800 344.645 C 240.920 344.981,239.030 345.507,237.600 345.814 C 236.170 346.120,234.620 346.482,234.155 346.618 C 233.065 346.936,232.650 345.934,233.173 344.248 C 233.386 343.562,233.844 341.830,234.190 340.400 C 234.536 338.970,235.185 336.360,235.633 334.600 C 236.081 332.840,236.637 330.500,236.868 329.400 C 237.099 328.300,237.628 326.439,238.044 325.264 C 238.460 324.090,238.800 322.696,238.800 322.166 C 238.800 321.636,239.147 320.167,239.571 318.902 C 239.995 317.636,240.467 315.790,240.618 314.800 C 240.770 313.810,241.126 312.548,241.409 311.995 C 241.691 311.442,242.052 310.126,242.210 309.071 C 242.566 306.699,244.162 301.879,244.644 301.720 C 245.008 301.601,247.093 303.395,251.142 307.311 C 253.653 309.740,254.503 310.067,256.000 309.177 C 257.322 308.391,258.010 307.986,261.800 305.766 C 263.560 304.735,265.495 303.632,266.100 303.316 C 267.562 302.552,267.835 301.202,267.082 298.464 C 266.382 295.918,265.435 291.665,264.576 287.200 C 264.258 285.550,263.729 283.403,263.399 282.429 C 263.070 281.455,262.800 280.055,262.800 279.319 C 262.800 278.582,262.440 276.956,262.000 275.704 C 261.560 274.452,261.200 272.420,261.200 271.189 L 261.200 268.950 265.144 265.075 C 269.483 260.812,269.486 260.811,273.264 261.995 C 274.659 262.432,276.353 262.792,277.029 262.795 C 277.705 262.798,279.055 263.070,280.029 263.399 C 281.003 263.729,283.150 264.260,284.800 264.579 C 290.008 265.588,293.734 266.398,295.800 266.970 C 302.055 268.703,301.371 269.240,308.216 257.216 C 308.444 256.814,308.861 256.208,309.142 255.869 C 309.751 255.136,309.063 253.869,306.806 251.565 C 305.554 250.286,301.254 245.703,292.591 236.412 C 287.728 231.197,286.630 229.687,287.201 228.999 C 287.475 228.668,287.930 227.363,288.212 226.099 C 288.493 224.835,288.945 223.170,289.216 222.400 C 289.488 221.630,289.916 220.370,290.169 219.600 C 290.604 218.277,290.838 218.132,294.415 216.959 C 300.731 214.888,304.975 213.596,305.456 213.598 C 305.707 213.599,306.697 213.244,307.656 212.809 C 308.615 212.374,309.857 212.014,310.415 212.009 C 310.974 212.004,312.096 211.661,312.909 211.246 C 313.722 210.832,315.240 210.365,316.281 210.209 C 317.323 210.053,319.036 209.489,320.088 208.956 L 322.000 207.987 321.994 200.493 C 321.987 192.060,321.977 192.024,319.558 191.714 C 318.591 191.590,317.132 191.154,316.316 190.744 C 315.500 190.335,314.409 190.000,313.892 190.000 C 313.376 190.000,312.604 189.741,312.176 189.424 C 311.300 188.773,310.329 189.791,328.440 172.393 C 342.362 159.020,343.187 158.254,343.416 158.483 C 344.004 159.070,346.185 165.858,347.099 169.943 C 347.347 171.053,348.170 171.429,354.200 173.193 C 360.497 175.035,365.068 176.402,367.600 177.198 C 368.810 177.579,371.060 178.268,372.600 178.730 C 374.140 179.192,376.300 179.859,377.400 180.213 C 378.500 180.567,380.300 181.095,381.400 181.387 C 382.500 181.679,384.069 182.206,384.887 182.559 C 385.705 182.911,386.785 183.206,387.287 183.214 C 387.789 183.221,388.920 183.575,389.800 184.000 C 390.680 184.425,391.853 184.779,392.406 184.786 C 392.959 184.794,394.039 185.134,394.806 185.543 C 395.573 185.952,397.055 186.413,398.100 186.567 L 400.000 186.849 400.000 93.425 L 400.000 0.000 306.800 0.000 L 213.600 0.000 213.600 1.306 C 213.600 2.024,213.932 3.239,214.339 4.006 C 214.745 4.773,215.192 6.256,215.331 7.303 C 215.471 8.350,215.841 9.610,216.154 10.103 C 216.467 10.596,216.854 11.809,217.013 12.798 C 217.173 13.787,217.640 15.224,218.052 15.992 C 218.463 16.760,218.801 17.931,218.802 18.594 C 218.804 19.257,219.085 20.336,219.426 20.992 C 219.768 21.647,220.239 23.087,220.473 24.192 C 220.706 25.296,221.125 26.650,221.403 27.200 C 221.681 27.750,222.121 29.232,222.381 30.493 C 222.641 31.754,223.001 32.877,223.182 32.989 C 223.362 33.100,223.636 33.868,223.791 34.696 C 223.945 35.523,224.403 37.190,224.808 38.400 C 225.213 39.610,226.381 43.244,227.404 46.476 L 229.264 52.351 231.732 53.137 C 233.089 53.570,235.280 54.141,236.600 54.407 C 237.920 54.673,239.450 55.115,240.000 55.389 C 240.550 55.663,241.818 55.994,242.818 56.125 C 243.818 56.255,245.168 56.640,245.818 56.979 C 248.016 58.125,247.966 58.151,253.608 52.800 C 259.907 46.825,266.523 40.642,268.600 38.790 C 269.920 37.613,271.973 35.738,273.162 34.625 C 274.350 33.511,275.808 32.150,276.400 31.600 C 276.992 31.050,278.450 29.696,279.638 28.592 C 280.827 27.487,283.381 25.189,285.313 23.485 C 289.186 20.068,288.540 20.185,291.959 22.286 C 292.751 22.773,293.940 23.461,294.600 23.813 C 295.260 24.166,296.455 24.848,297.256 25.327 C 300.741 27.416,308.515 31.849,309.618 32.377 C 311.008 33.043,311.471 34.343,310.874 35.908 C 310.645 36.508,310.342 37.900,310.201 39.000 C 310.060 40.100,309.597 42.144,309.172 43.542 C 308.748 44.940,308.400 46.548,308.400 47.114 C 308.400 47.680,308.053 49.326,307.629 50.772 C 307.204 52.217,306.677 54.300,306.457 55.400 C 306.074 57.318,305.793 58.598,304.790 63.000 C 304.539 64.100,304.006 66.475,303.606 68.277 C 303.205 70.079,302.692 72.149,302.467 72.877 C 302.241 73.605,301.941 75.010,301.800 76.000 C 301.659 76.990,301.346 78.430,301.104 79.200 C 300.862 79.970,300.351 82.130,299.969 84.000 L 299.274 87.400 304.477 92.645 C 310.568 98.786,310.654 99.063,306.797 100.095 C 305.369 100.477,302.580 101.245,300.600 101.801 C 298.620 102.358,295.650 103.193,294.000 103.656 C 292.350 104.120,289.830 104.829,288.400 105.232 C 286.970 105.635,284.990 106.175,284.000 106.432 C 281.330 107.125,276.923 108.385,274.181 109.240 C 272.002 109.919,269.920 110.429,266.700 111.071 C 265.815 111.248,265.600 111.145,265.602 110.545 C 265.605 108.983,266.746 102.849,267.187 102.025 C 268.206 100.120,267.582 98.726,265.000 97.141 C 254.014 90.400,254.554 90.518,250.800 94.060 C 249.370 95.409,245.680 98.864,242.600 101.737 C 239.520 104.610,236.280 107.635,235.400 108.461 C 229.350 114.133,229.155 114.219,226.014 112.613 C 225.456 112.328,224.199 111.961,223.219 111.799 C 218.854 111.073,217.742 110.179,216.749 106.600 C 216.383 105.280,215.713 102.940,215.260 101.400 C 214.808 99.860,214.049 97.250,213.574 95.600 C 213.099 93.950,212.571 92.420,212.400 92.200 C 212.230 91.980,211.960 90.990,211.800 90.000 C 211.640 89.010,211.268 87.750,210.973 87.200 C 210.678 86.650,210.259 85.390,210.041 84.400 C 209.823 83.410,209.288 81.610,208.850 80.400 L 208.055 78.200 199.928 78.200 L 191.800 78.200 191.576 79.800 C 191.452 80.680,191.072 81.940,190.731 82.600 C 190.390 83.260,189.991 84.584,189.844 85.542 C 189.697 86.500,189.328 87.766,189.023 88.356 C 188.718 88.945,188.347 90.141,188.199 91.014 C 188.051 91.886,187.609 93.500,187.217 94.600 C 186.214 97.411,184.911 101.594,182.582 109.481 C 182.504 109.745,180.856 110.427,178.920 110.996 C 176.984 111.565,174.860 112.220,174.200 112.451 C 170.061 113.898,171.240 114.593,160.584 104.430 C 158.376 102.323,154.780 98.980,152.593 97.000 C 150.407 95.020,148.238 93.000,147.774 92.511 C 146.686 91.366,144.816 91.234,143.353 92.199 C 142.719 92.618,141.030 93.577,139.600 94.330 C 138.170 95.083,136.730 95.911,136.400 96.170 C 136.070 96.428,135.110 96.991,134.267 97.420 C 132.015 98.566,131.659 100.532,133.066 104.048 C 133.410 104.907,133.715 106.552,133.745 107.705 L 133.800 109.800 132.400 109.748 C 131.630 109.719,130.100 109.397,129.000 109.032 C 127.084 108.398,125.012 107.764,119.100 106.004 C 117.615 105.562,115.275 104.861,113.900 104.446 C 112.525 104.031,110.050 103.306,108.400 102.833 C 103.481 101.424,99.972 100.362,96.896 99.353 C 95.300 98.829,93.671 98.400,93.276 98.400 C 92.503 98.400,91.600 97.677,91.600 97.057 C 91.600 96.846,93.650 94.587,96.156 92.037 L 100.712 87.400 100.157 84.200 C 99.851 82.440,99.421 80.550,99.200 80.000 C 98.979 79.450,98.543 77.650,98.232 76.000 C 97.920 74.350,97.484 72.280,97.264 71.400 C 96.144 66.925,95.458 63.935,94.969 61.400 C 94.673 59.860,94.153 57.716,93.815 56.636 C 93.477 55.556,93.200 54.190,93.200 53.599 C 93.200 53.008,92.840 51.479,92.400 50.200 C 91.960 48.921,91.600 47.296,91.600 46.588 C 91.600 45.880,91.316 44.513,90.968 43.550 C 90.621 42.588,90.170 40.630,89.965 39.200 C 89.761 37.770,89.400 36.121,89.163 35.536 C 88.641 34.245,89.152 33.084,90.578 32.320 C 91.642 31.751,96.820 28.723,99.141 27.313 C 101.465 25.902,102.953 25.058,104.633 24.200 C 105.495 23.760,106.259 23.267,106.332 23.105 C 106.404 22.942,107.214 22.452,108.132 22.015 C 109.049 21.578,110.097 21.003,110.459 20.738 C 111.015 20.331,111.398 20.534,112.898 22.028 C 113.876 23.002,116.533 25.510,118.802 27.600 C 121.070 29.690,123.123 31.582,123.363 31.804 C 123.603 32.027,125.690 33.912,128.000 35.994 C 130.310 38.076,132.804 40.324,133.542 40.990 C 134.281 41.655,135.367 42.650,135.957 43.200 C 136.546 43.750,139.083 46.090,141.594 48.400 C 144.105 50.710,146.529 52.965,146.980 53.410 C 151.136 57.518,152.232 57.970,155.200 56.800 C 156.316 56.360,157.628 56.003,158.115 56.006 C 158.602 56.009,160.213 55.643,161.696 55.193 C 163.179 54.743,165.699 53.988,167.296 53.514 C 171.158 52.370,171.408 51.901,174.628 39.800 C 174.921 38.700,175.446 36.900,175.795 35.800 C 176.145 34.700,176.782 32.630,177.211 31.200 C 177.641 29.770,178.444 27.220,178.996 25.533 C 179.548 23.846,180.006 22.136,180.013 21.733 C 180.020 21.330,180.282 20.661,180.596 20.246 C 180.910 19.831,181.285 18.703,181.430 17.740 C 181.574 16.776,182.032 15.322,182.446 14.509 C 182.861 13.696,183.200 12.528,183.200 11.914 C 183.200 11.300,183.560 10.125,184.000 9.304 C 184.440 8.484,184.800 7.357,184.800 6.800 C 184.800 6.243,185.160 5.116,185.600 4.296 C 186.040 3.475,186.400 2.172,186.400 1.401 L 186.400 0.000 93.200 0.000 L 0.000 0.000 -0.000 93.414 " stroke="none" fill="#ffffff" fill-rule="evenodd"></path><path id="path2" d="M186.400 1.401 C 186.400 2.172,186.040 3.475,185.600 4.296 C 185.160 5.116,184.800 6.243,184.800 6.800 C 184.800 7.357,184.440 8.484,184.000 9.304 C 183.560 10.125,183.200 11.300,183.200 11.914 C 183.200 12.528,182.861 13.696,182.446 14.509 C 182.032 15.322,181.574 16.776,181.430 17.740 C 181.285 18.703,180.910 19.831,180.596 20.246 C 180.282 20.661,180.020 21.330,180.013 21.733 C 180.006 22.136,179.548 23.846,178.996 25.533 C 178.444 27.220,177.641 29.770,177.211 31.200 C 176.782 32.630,176.145 34.700,175.795 35.800 C 175.446 36.900,174.921 38.700,174.628 39.800 C 171.408 51.901,171.158 52.370,167.296 53.514 C 165.699 53.988,163.179 54.743,161.696 55.193 C 160.213 55.643,158.602 56.009,158.115 56.006 C 157.628 56.003,156.316 56.360,155.200 56.800 C 152.232 57.970,151.136 57.518,146.980 53.410 C 146.529 52.965,144.105 50.710,141.594 48.400 C 139.083 46.090,136.546 43.750,135.957 43.200 C 135.367 42.650,134.281 41.655,133.542 40.990 C 132.804 40.324,130.310 38.076,128.000 35.994 C 125.690 33.912,123.603 32.027,123.363 31.804 C 123.123 31.582,121.070 29.690,118.802 27.600 C 116.533 25.510,113.876 23.002,112.898 22.028 C 111.398 20.534,111.015 20.331,110.459 20.738 C 110.097 21.003,109.049 21.578,108.132 22.015 C 107.214 22.452,106.404 22.942,106.332 23.105 C 106.259 23.267,105.495 23.760,104.633 24.200 C 102.953 25.058,101.465 25.902,99.141 27.313 C 96.820 28.723,91.642 31.751,90.578 32.320 C 89.152 33.084,88.641 34.245,89.163 35.536 C 89.400 36.121,89.761 37.770,89.965 39.200 C 90.170 40.630,90.621 42.588,90.968 43.550 C 91.316 44.513,91.600 45.880,91.600 46.588 C 91.600 47.296,91.960 48.921,92.400 50.200 C 92.840 51.479,93.200 53.008,93.200 53.599 C 93.200 54.190,93.477 55.556,93.815 56.636 C 94.153 57.716,94.673 59.860,94.969 61.400 C 95.458 63.935,96.144 66.925,97.264 71.400 C 97.484 72.280,97.920 74.350,98.232 76.000 C 98.543 77.650,98.979 79.450,99.200 80.000 C 99.421 80.550,99.851 82.440,100.157 84.200 L 100.712 87.400 96.156 92.037 C 93.650 94.587,91.600 96.846,91.600 97.057 C 91.600 97.677,92.503 98.400,93.276 98.400 C 93.671 98.400,95.300 98.829,96.896 99.353 C 99.972 100.362,103.481 101.424,108.400 102.833 C 110.050 103.306,112.480 104.016,113.800 104.412 C 115.120 104.808,117.460 105.509,119.000 105.970 C 125.661 107.963,127.110 108.406,129.000 109.032 C 130.100 109.397,131.630 109.719,132.400 109.748 L 133.800 109.800 133.745 107.705 C 133.715 106.552,133.410 104.907,133.066 104.048 C 131.659 100.532,132.015 98.566,134.267 97.420 C 135.110 96.991,136.070 96.428,136.400 96.170 C 136.730 95.911,138.170 95.083,139.600 94.330 C 141.030 93.577,142.719 92.618,143.353 92.199 C 144.816 91.234,146.686 91.366,147.774 92.511 C 148.238 93.000,150.407 95.020,152.593 97.000 C 154.780 98.980,158.376 102.323,160.584 104.430 C 171.240 114.593,170.061 113.898,174.200 112.451 C 174.860 112.220,176.984 111.565,178.920 110.996 C 180.856 110.427,182.504 109.745,182.582 109.481 C 184.911 101.594,186.214 97.411,187.217 94.600 C 187.609 93.500,188.051 91.886,188.199 91.014 C 188.347 90.141,188.718 88.945,189.023 88.356 C 189.328 87.766,189.697 86.500,189.844 85.542 C 189.991 84.584,190.390 83.260,190.731 82.600 C 191.072 81.940,191.452 80.680,191.576 79.800 L 191.800 78.200 199.928 78.200 L 208.055 78.200 208.850 80.400 C 209.288 81.610,209.823 83.410,210.041 84.400 C 210.259 85.390,210.678 86.650,210.973 87.200 C 211.268 87.750,211.640 89.010,211.800 90.000 C 211.960 90.990,212.230 91.980,212.400 92.200 C 212.571 92.420,213.099 93.950,213.574 95.600 C 214.049 97.250,214.808 99.860,215.260 101.400 C 215.713 102.940,216.383 105.280,216.749 106.600 C 217.742 110.179,218.854 111.073,223.219 111.799 C 224.199 111.961,225.456 112.328,226.014 112.613 C 229.155 114.219,229.350 114.133,235.400 108.461 C 236.280 107.635,239.520 104.610,242.600 101.737 C 245.680 98.864,249.370 95.409,250.800 94.060 C 254.554 90.518,254.014 90.400,265.000 97.141 C 267.582 98.726,268.206 100.120,267.187 102.025 C 266.746 102.849,265.605 108.983,265.602 110.545 C 265.600 111.145,265.815 111.248,266.700 111.071 C 269.920 110.429,272.002 109.919,274.181 109.240 C 276.923 108.385,281.330 107.125,284.000 106.432 C 284.990 106.175,286.970 105.635,288.400 105.232 C 289.830 104.829,292.350 104.120,294.000 103.656 C 295.650 103.193,298.620 102.358,300.600 101.801 C 302.580 101.245,305.369 100.477,306.797 100.095 C 310.654 99.063,310.568 98.786,304.477 92.645 L 299.274 87.400 299.969 84.000 C 300.351 82.130,300.862 79.970,301.104 79.200 C 301.346 78.430,301.659 76.990,301.800 76.000 C 301.941 75.010,302.241 73.605,302.467 72.877 C 302.692 72.149,303.205 70.079,303.606 68.277 C 304.006 66.475,304.519 64.190,304.744 63.200 C 305.773 58.683,306.084 57.267,306.457 55.400 C 306.677 54.300,307.204 52.217,307.629 50.772 C 308.053 49.326,308.400 47.680,308.400 47.114 C 308.400 46.548,308.748 44.940,309.172 43.542 C 309.597 42.144,310.060 40.100,310.201 39.000 C 310.342 37.900,310.645 36.508,310.874 35.908 C 311.471 34.343,311.008 33.043,309.618 32.377 C 308.515 31.849,300.741 27.416,297.256 25.327 C 296.455 24.848,295.260 24.166,294.600 23.813 C 293.940 23.461,292.751 22.773,291.959 22.286 C 288.540 20.185,289.186 20.068,285.313 23.485 C 283.381 25.189,280.827 27.487,279.638 28.592 C 278.450 29.696,276.992 31.050,276.400 31.600 C 275.808 32.150,274.350 33.511,273.162 34.625 C 271.973 35.738,269.920 37.613,268.600 38.790 C 266.523 40.642,259.907 46.825,253.608 52.800 C 247.966 58.151,248.016 58.125,245.818 56.979 C 245.168 56.640,243.818 56.255,242.818 56.125 C 241.818 55.994,240.550 55.663,240.000 55.389 C 239.450 55.115,237.920 54.673,236.600 54.407 C 235.280 54.141,233.089 53.570,231.732 53.137 L 229.264 52.351 227.404 46.476 C 226.381 43.244,225.213 39.610,224.808 38.400 C 224.403 37.190,223.945 35.523,223.791 34.696 C 223.636 33.868,223.362 33.100,223.182 32.989 C 223.001 32.877,222.641 31.754,222.381 30.493 C 222.121 29.232,221.681 27.750,221.403 27.200 C 221.125 26.650,220.706 25.296,220.473 24.192 C 220.239 23.087,219.768 21.647,219.426 20.992 C 219.085 20.336,218.804 19.257,218.802 18.594 C 218.801 17.931,218.463 16.760,218.052 15.992 C 217.640 15.224,217.173 13.787,217.013 12.798 C 216.854 11.809,216.467 10.596,216.154 10.103 C 215.841 9.610,215.471 8.350,215.331 7.303 C 215.192 6.256,214.745 4.773,214.339 4.006 C 213.932 3.239,213.600 2.024,213.600 1.306 L 213.600 0.000 200.000 0.000 L 186.400 0.000 186.400 1.401 M369.033 100.746 C 368.916 100.936,367.690 101.313,366.310 101.584 C 364.929 101.854,363.620 102.222,363.400 102.401 C 363.180 102.580,361.969 102.916,360.710 103.148 C 359.450 103.379,357.884 103.846,357.230 104.185 C 356.575 104.523,355.693 104.800,355.270 104.800 C 354.847 104.800,353.713 105.090,352.750 105.445 C 351.788 105.800,350.010 106.326,348.800 106.615 C 347.590 106.903,345.880 107.415,345.000 107.752 C 344.120 108.089,342.986 108.373,342.480 108.382 C 341.974 108.392,341.025 108.677,340.370 109.015 C 339.716 109.354,338.157 109.820,336.907 110.051 C 335.656 110.282,334.271 110.725,333.828 111.036 C 333.385 111.346,332.567 111.608,332.011 111.618 C 331.455 111.627,330.280 111.911,329.400 112.247 C 328.520 112.584,326.644 113.120,325.231 113.438 C 323.818 113.756,322.468 114.176,322.231 114.371 C 321.994 114.566,320.810 114.909,319.600 115.133 C 318.390 115.356,316.860 115.822,316.200 116.167 C 315.540 116.513,314.550 116.804,314.000 116.815 C 313.450 116.826,312.280 117.111,311.400 117.448 C 310.520 117.785,308.765 118.295,307.501 118.580 C 306.237 118.866,304.977 119.279,304.701 119.498 C 304.425 119.717,303.480 120.018,302.600 120.167 C 301.135 120.415,298.782 121.097,294.000 122.659 C 293.010 122.983,291.210 123.496,290.000 123.799 C 286.460 124.687,282.324 125.900,280.600 126.556 C 279.720 126.891,278.586 127.173,278.080 127.182 C 277.574 127.192,276.612 127.484,275.942 127.830 C 275.271 128.177,273.885 128.614,272.861 128.801 C 271.838 128.989,270.100 129.432,269.000 129.786 C 266.732 130.517,263.190 131.574,258.800 132.832 C 257.150 133.305,254.990 133.952,254.000 134.271 C 253.010 134.590,251.120 135.098,249.800 135.401 C 248.480 135.704,246.731 136.232,245.913 136.576 C 245.095 136.919,244.015 137.201,243.513 137.202 C 243.011 137.204,242.081 137.476,241.447 137.806 C 240.813 138.137,239.553 138.524,238.647 138.666 C 237.741 138.808,236.220 139.257,235.267 139.662 C 234.314 140.068,233.144 140.408,232.667 140.418 C 232.190 140.427,231.080 140.711,230.200 141.048 C 229.320 141.385,227.610 141.903,226.400 142.200 C 225.190 142.497,223.390 143.010,222.400 143.340 C 221.410 143.670,219.250 144.327,217.600 144.800 C 215.950 145.273,213.790 145.931,212.800 146.262 C 211.810 146.592,210.107 147.044,209.015 147.265 C 207.924 147.486,206.574 147.901,206.015 148.186 C 205.457 148.472,204.190 148.838,203.200 149.000 C 202.210 149.162,200.905 149.548,200.300 149.858 C 199.354 150.342,199.046 150.342,198.100 149.858 C 197.495 149.548,196.190 149.162,195.200 149.000 C 194.210 148.838,192.946 148.473,192.392 148.190 C 191.837 147.906,190.328 147.479,189.037 147.241 C 187.746 147.002,186.490 146.642,186.245 146.440 C 186.000 146.239,184.769 145.884,183.510 145.652 C 182.250 145.421,180.720 144.979,180.110 144.672 C 179.499 144.364,178.118 143.997,177.040 143.856 C 175.963 143.714,174.838 143.397,174.541 143.151 C 174.244 142.904,172.876 142.471,171.500 142.188 C 170.125 141.904,168.280 141.394,167.400 141.054 C 166.520 140.713,165.415 140.427,164.944 140.418 C 164.473 140.408,163.303 140.044,162.344 139.609 C 161.385 139.174,160.060 138.808,159.400 138.795 C 158.740 138.783,157.480 138.425,156.600 138.000 C 155.720 137.575,154.640 137.222,154.200 137.215 C 153.760 137.209,151.870 136.741,150.000 136.176 C 146.162 135.017,142.786 134.037,138.400 132.811 C 135.208 131.919,131.591 130.855,128.000 129.754 C 126.790 129.383,125.080 128.949,124.200 128.789 C 123.320 128.630,121.790 128.223,120.800 127.884 C 119.810 127.546,117.470 126.824,115.600 126.280 C 113.730 125.736,110.940 124.908,109.400 124.440 C 107.860 123.972,106.240 123.587,105.800 123.585 C 105.360 123.584,104.215 123.226,103.256 122.791 C 102.297 122.356,101.037 121.996,100.456 121.991 C 99.875 121.986,98.674 121.653,97.787 121.250 C 96.900 120.847,95.324 120.389,94.285 120.234 C 93.246 120.078,91.906 119.697,91.308 119.386 C 90.711 119.076,89.406 118.704,88.411 118.559 C 87.415 118.414,86.101 118.043,85.490 117.733 C 84.880 117.423,83.350 116.979,82.090 116.748 C 80.831 116.516,79.600 116.161,79.355 115.960 C 79.110 115.758,77.850 115.398,76.555 115.160 C 75.260 114.921,74.006 114.566,73.769 114.371 C 73.532 114.176,72.182 113.756,70.769 113.438 C 69.356 113.120,67.480 112.584,66.600 112.247 C 65.720 111.911,64.550 111.626,64.000 111.615 C 63.450 111.604,62.500 111.334,61.890 111.016 C 61.279 110.697,59.798 110.255,58.600 110.034 C 57.401 109.812,55.920 109.379,55.310 109.071 C 54.699 108.763,53.416 108.391,52.458 108.244 C 51.500 108.097,50.240 107.736,49.658 107.441 C 49.076 107.145,47.702 106.773,46.605 106.613 C 45.508 106.453,44.151 106.085,43.590 105.795 C 43.029 105.505,41.676 105.086,40.585 104.865 C 39.493 104.644,37.790 104.189,36.800 103.855 C 27.176 100.602,25.063 100.865,29.206 104.800 C 30.480 106.010,35.537 110.870,40.443 115.600 C 48.430 123.301,53.540 128.209,59.850 134.240 C 60.978 135.318,64.559 138.720,67.808 141.800 C 71.058 144.880,75.190 148.840,76.991 150.600 C 78.793 152.360,83.745 157.130,87.997 161.200 C 92.249 165.270,96.824 169.654,98.164 170.942 C 99.504 172.230,103.288 175.830,106.573 178.942 C 112.143 184.217,117.725 189.592,130.583 202.057 C 133.453 204.839,137.396 208.619,139.346 210.457 C 141.297 212.296,144.116 214.970,145.612 216.400 C 147.107 217.830,150.057 220.608,152.166 222.572 C 155.035 225.246,156.000 226.396,156.000 227.144 C 156.000 227.694,156.349 229.326,156.776 230.772 C 157.781 234.179,158.767 237.994,159.417 241.000 C 159.999 243.689,160.872 247.230,161.982 251.400 C 162.742 254.255,163.152 255.893,164.434 261.200 C 164.833 262.850,165.544 265.730,166.014 267.600 C 166.484 269.470,167.112 272.080,167.410 273.400 C 167.707 274.720,168.217 276.790,168.543 278.000 C 168.869 279.210,169.584 282.000,170.133 284.200 C 170.681 286.400,171.340 289.010,171.596 290.000 C 171.853 290.990,172.252 292.700,172.484 293.800 C 172.717 294.900,173.242 296.836,173.653 298.102 C 174.064 299.367,174.400 300.852,174.400 301.400 C 174.400 301.948,174.750 303.433,175.178 304.698 C 175.605 305.964,176.079 307.900,176.230 309.000 C 176.380 310.100,176.741 311.467,177.030 312.037 C 177.319 312.608,177.680 314.048,177.832 315.237 C 177.984 316.427,178.347 317.872,178.639 318.450 C 178.930 319.027,179.365 320.730,179.605 322.234 C 179.846 323.738,180.203 325.163,180.400 325.400 C 180.597 325.637,180.947 327.017,181.179 328.466 C 181.410 329.915,181.850 331.709,182.155 332.451 C 182.461 333.193,182.842 334.790,183.003 336.000 C 183.163 337.210,183.521 338.650,183.800 339.200 C 184.078 339.750,184.430 341.010,184.582 342.000 C 184.733 342.990,185.205 344.836,185.629 346.102 C 186.053 347.367,186.400 348.936,186.400 349.587 C 186.400 350.238,186.760 351.684,187.200 352.800 C 187.640 353.916,188.008 355.318,188.018 355.915 C 188.027 356.512,188.303 357.720,188.631 358.600 C 188.959 359.480,189.483 361.460,189.795 363.000 C 190.414 366.054,191.284 369.555,192.427 373.600 C 192.831 375.030,193.362 377.100,193.607 378.200 C 193.851 379.300,194.391 381.550,194.805 383.200 C 195.220 384.850,195.901 387.645,196.319 389.410 C 196.737 391.176,197.271 393.246,197.506 394.010 C 197.740 394.775,198.047 396.120,198.188 397.000 C 198.567 399.380,198.803 400.001,199.327 399.994 C 199.971 399.986,201.557 395.743,202.043 392.725 C 202.261 391.369,202.558 390.067,202.703 389.834 C 202.847 389.601,203.301 387.968,203.711 386.205 C 205.628 377.968,206.487 374.439,207.460 370.800 C 208.133 368.282,209.335 363.225,210.028 360.000 C 210.287 358.790,210.837 356.730,211.250 355.422 C 211.662 354.115,212.008 352.585,212.018 352.022 C 212.027 351.460,212.303 350.280,212.631 349.400 C 212.959 348.520,213.484 346.540,213.798 345.000 C 214.569 341.214,215.483 337.527,216.427 334.400 C 216.858 332.970,217.209 331.396,217.206 330.902 C 217.203 330.407,217.550 328.967,217.978 327.702 C 218.405 326.436,218.878 324.500,219.028 323.400 C 219.178 322.300,219.463 321.196,219.661 320.946 C 219.859 320.697,220.277 319.038,220.590 317.259 C 220.902 315.481,221.327 313.705,221.533 313.313 C 221.739 312.921,222.031 311.790,222.182 310.800 C 222.334 309.810,222.805 307.964,223.229 306.698 C 223.653 305.433,223.997 303.993,223.994 303.498 C 223.991 303.004,224.333 301.430,224.754 300.000 C 225.706 296.768,226.667 292.993,227.402 289.600 C 228.263 285.627,229.155 282.071,230.018 279.172 C 230.448 277.726,230.797 276.196,230.794 275.772 C 230.791 275.347,231.133 273.830,231.553 272.400 C 232.274 269.950,233.000 267.085,234.188 262.000 C 235.259 257.418,236.061 254.152,236.449 252.800 C 236.670 252.030,237.186 249.960,237.597 248.200 C 238.007 246.440,238.708 243.560,239.155 241.800 C 239.602 240.040,240.165 237.700,240.407 236.600 C 240.649 235.500,241.182 233.430,241.592 232.000 C 242.002 230.570,242.459 228.627,242.607 227.683 C 242.913 225.731,243.365 225.242,256.187 213.000 C 267.475 202.223,269.831 199.943,289.228 181.018 C 293.973 176.388,301.247 169.360,305.392 165.400 C 315.106 156.120,325.929 145.635,344.620 127.400 C 346.649 125.420,351.411 120.830,355.202 117.200 C 367.408 105.512,371.655 101.212,371.401 100.802 C 371.097 100.310,369.329 100.268,369.033 100.746 M368.915 102.248 C 369.166 102.499,367.269 104.394,354.749 116.400 C 347.444 123.405,337.314 133.217,327.419 142.873 C 319.328 150.768,313.499 156.402,307.214 162.400 C 299.668 169.603,281.409 187.283,269.356 199.059 C 266.912 201.446,261.872 206.323,258.156 209.896 C 254.440 213.468,249.285 218.427,246.700 220.916 C 242.937 224.538,242.000 225.660,242.000 226.540 C 242.000 227.145,241.737 228.148,241.416 228.770 C 241.094 229.391,240.644 231.070,240.416 232.500 C 240.187 233.931,239.754 235.709,239.452 236.451 C 239.150 237.193,238.780 238.773,238.630 239.963 C 238.479 241.152,238.121 242.592,237.834 243.163 C 237.547 243.733,237.202 245.047,237.066 246.083 C 236.931 247.119,236.455 249.048,236.010 250.370 C 235.564 251.693,235.200 253.275,235.200 253.887 C 235.200 254.499,234.840 255.947,234.400 257.104 C 233.960 258.262,233.600 259.752,233.600 260.417 C 233.600 261.082,233.332 262.266,233.005 263.049 C 232.679 263.831,232.206 265.670,231.956 267.136 C 231.706 268.601,231.361 269.980,231.188 270.200 C 231.016 270.420,230.660 271.770,230.398 273.200 C 230.135 274.630,229.679 276.520,229.384 277.400 C 229.090 278.280,228.730 279.898,228.586 280.995 C 228.441 282.092,228.080 283.459,227.783 284.032 C 227.487 284.606,227.121 286.048,226.970 287.237 C 226.820 288.427,226.450 290.007,226.148 290.749 C 225.846 291.491,225.410 293.285,225.179 294.734 C 224.947 296.183,224.571 297.594,224.343 297.868 C 224.116 298.143,223.775 299.590,223.586 301.084 C 223.398 302.578,222.980 304.340,222.659 305.000 C 222.338 305.660,221.947 307.190,221.791 308.400 C 221.634 309.610,221.269 311.063,220.979 311.630 C 220.689 312.196,220.277 313.816,220.063 315.230 C 219.849 316.643,219.395 318.520,219.054 319.400 C 218.714 320.280,218.427 321.578,218.418 322.285 C 218.408 322.992,218.064 324.432,217.652 325.485 C 217.241 326.538,216.774 328.467,216.615 329.772 C 216.455 331.076,216.086 332.516,215.795 332.972 C 215.503 333.427,215.141 334.880,214.990 336.200 C 214.839 337.520,214.467 338.994,214.164 339.476 C 213.861 339.958,213.496 341.398,213.354 342.676 C 213.211 343.954,212.759 345.755,212.347 346.678 C 211.936 347.601,211.600 349.096,211.600 350.000 C 211.600 350.904,211.262 352.399,210.848 353.322 C 210.435 354.245,209.968 356.067,209.810 357.372 C 209.653 358.676,209.286 360.116,208.995 360.572 C 208.703 361.027,208.341 362.480,208.190 363.800 C 208.039 365.120,207.667 366.594,207.364 367.076 C 207.061 367.558,206.694 368.998,206.550 370.276 C 206.405 371.554,205.952 373.462,205.543 374.515 C 205.134 375.568,204.799 377.098,204.798 377.915 C 204.796 378.732,204.509 379.940,204.160 380.600 C 203.811 381.260,203.359 382.970,203.155 384.400 C 202.951 385.830,202.530 387.542,202.219 388.205 C 201.907 388.867,201.522 390.397,201.362 391.605 C 200.811 395.758,198.822 398.864,198.782 395.633 C 198.773 394.845,198.488 393.480,198.150 392.600 C 197.811 391.720,197.314 389.710,197.043 388.132 C 196.773 386.555,196.351 385.023,196.105 384.727 C 195.860 384.431,195.482 383.021,195.266 381.594 C 195.050 380.167,194.595 378.280,194.254 377.400 C 193.914 376.520,193.627 375.203,193.618 374.474 C 193.608 373.745,193.254 372.305,192.832 371.274 C 192.410 370.243,191.951 368.435,191.812 367.256 C 191.674 366.077,191.319 364.727,191.023 364.256 C 190.727 363.785,190.361 362.320,190.210 361.000 C 190.059 359.680,189.683 358.206,189.374 357.724 C 189.065 357.242,188.696 355.802,188.554 354.524 C 188.411 353.246,187.959 351.445,187.547 350.522 C 187.136 349.599,186.800 348.192,186.800 347.396 C 186.800 346.600,186.454 345.105,186.032 344.074 C 185.610 343.043,185.149 341.210,185.008 340.000 C 184.867 338.790,184.519 337.440,184.234 337.000 C 183.949 336.560,183.581 335.120,183.416 333.800 C 183.252 332.481,182.863 330.909,182.552 330.307 C 182.241 329.706,181.886 328.356,181.763 327.307 C 181.640 326.258,181.214 324.410,180.816 323.200 C 180.418 321.990,179.882 320.010,179.624 318.800 C 179.160 316.625,178.226 312.645,176.993 307.600 C 176.644 306.170,176.005 303.830,175.573 302.400 C 175.142 300.970,174.791 299.399,174.794 298.908 C 174.797 298.418,174.538 297.338,174.217 296.508 C 173.897 295.679,173.440 293.880,173.202 292.512 C 172.964 291.143,172.528 289.433,172.234 288.712 C 171.939 287.990,171.574 286.538,171.422 285.485 C 171.271 284.431,170.888 282.952,170.573 282.198 C 170.258 281.443,170.000 280.374,170.000 279.821 C 170.000 279.269,169.653 277.688,169.229 276.308 C 168.252 273.128,167.295 269.326,166.634 266.000 C 166.349 264.570,165.820 262.539,165.458 261.486 C 165.096 260.433,164.800 259.135,164.800 258.601 C 164.800 258.067,164.456 256.678,164.036 255.515 C 163.616 254.352,163.148 252.502,162.997 251.405 C 162.846 250.308,162.489 248.958,162.203 248.405 C 161.916 247.852,161.555 246.319,161.399 245.000 C 161.243 243.680,160.881 242.227,160.595 241.772 C 160.309 241.316,159.948 239.876,159.793 238.572 C 159.637 237.267,159.257 235.651,158.947 234.979 C 158.637 234.307,158.213 232.707,158.004 231.424 C 157.107 225.911,157.469 226.369,143.653 213.285 C 140.932 210.708,137.132 207.070,135.209 205.200 C 126.468 196.701,114.006 184.719,112.066 182.948 C 110.892 181.877,107.973 179.110,105.578 176.800 C 103.184 174.490,99.991 171.430,98.482 170.000 C 96.974 168.570,91.163 162.973,85.570 157.562 C 79.976 152.151,74.811 147.201,74.091 146.562 C 73.371 145.923,70.761 143.465,68.291 141.100 C 65.821 138.735,62.616 135.675,61.168 134.300 C 59.721 132.925,54.161 127.570,48.814 122.400 C 39.154 113.061,37.933 111.888,32.456 106.690 C 30.885 105.199,29.600 103.798,29.600 103.577 C 29.600 103.355,29.195 103.011,28.700 102.812 C 27.825 102.461,27.830 102.450,28.867 102.425 C 29.453 102.411,29.993 102.580,30.067 102.801 C 30.141 103.022,31.507 103.451,33.104 103.755 C 34.701 104.060,36.240 104.501,36.523 104.736 C 36.806 104.971,38.019 105.337,39.219 105.548 C 40.419 105.760,42.120 106.210,43.000 106.549 C 43.880 106.888,45.050 107.174,45.600 107.185 C 46.150 107.196,47.140 107.487,47.800 107.833 C 48.460 108.178,49.940 108.635,51.090 108.849 C 52.239 109.062,53.679 109.497,54.290 109.816 C 54.900 110.134,55.850 110.404,56.400 110.415 C 56.950 110.426,58.120 110.711,59.000 111.048 C 59.880 111.385,61.590 111.903,62.800 112.200 C 64.010 112.497,65.720 113.015,66.600 113.352 C 67.480 113.689,68.745 113.973,69.411 113.982 C 70.077 113.992,70.987 114.256,71.433 114.568 C 71.880 114.881,73.385 115.343,74.779 115.596 C 76.173 115.849,77.693 116.292,78.157 116.580 C 78.620 116.868,79.856 117.213,80.903 117.345 C 81.950 117.477,83.210 117.839,83.703 118.149 C 84.196 118.460,85.462 118.835,86.517 118.984 C 87.571 119.132,89.191 119.598,90.117 120.018 C 91.042 120.439,92.340 120.792,93.000 120.805 C 93.660 120.817,94.920 121.175,95.800 121.600 C 96.680 122.025,97.905 122.379,98.522 122.386 C 99.139 122.394,100.399 122.738,101.322 123.151 C 102.245 123.564,103.885 124.030,104.967 124.186 C 106.048 124.341,107.308 124.709,107.767 125.003 C 108.225 125.297,109.500 125.661,110.600 125.812 C 111.700 125.963,113.004 126.340,113.497 126.651 C 113.990 126.961,115.250 127.323,116.297 127.455 C 117.344 127.587,118.617 127.956,119.126 128.274 C 119.636 128.593,121.137 129.028,122.463 129.241 C 123.788 129.455,125.261 129.871,125.736 130.167 C 126.211 130.462,127.456 130.813,128.503 130.945 C 129.550 131.077,130.810 131.445,131.303 131.762 C 131.796 132.078,133.094 132.468,134.187 132.627 C 135.280 132.787,136.900 133.247,137.787 133.650 C 138.674 134.053,139.940 134.392,140.600 134.405 C 141.260 134.417,142.520 134.775,143.400 135.200 C 144.280 135.625,145.540 135.980,146.200 135.989 C 146.860 135.998,147.900 136.266,148.511 136.585 C 149.122 136.903,150.742 137.382,152.111 137.647 C 153.480 137.913,154.960 138.357,155.400 138.634 C 155.840 138.911,157.100 139.268,158.200 139.428 C 159.300 139.587,160.560 139.947,161.000 140.228 C 161.440 140.508,162.700 140.861,163.800 141.012 C 164.900 141.163,166.192 141.533,166.672 141.834 C 167.151 142.135,168.321 142.501,169.272 142.648 C 170.222 142.794,171.862 143.248,172.915 143.657 C 173.968 144.066,175.413 144.400,176.126 144.400 C 176.839 144.400,177.814 144.675,178.293 145.010 C 178.773 145.346,180.204 145.813,181.474 146.048 C 182.745 146.282,184.240 146.710,184.797 146.999 C 185.355 147.287,186.708 147.656,187.805 147.820 C 188.902 147.984,190.172 148.360,190.626 148.656 C 191.080 148.953,192.340 149.314,193.426 149.459 C 194.512 149.604,196.027 150.055,196.794 150.461 C 198.557 151.395,199.843 151.395,201.606 150.461 C 202.373 150.055,203.856 149.608,204.903 149.469 C 205.950 149.329,207.210 148.955,207.703 148.638 C 208.196 148.322,209.500 147.939,210.600 147.788 C 211.700 147.637,212.977 147.277,213.437 146.989 C 213.898 146.700,215.248 146.283,216.437 146.062 C 217.627 145.841,219.140 145.378,219.800 145.033 C 220.460 144.687,221.540 144.398,222.200 144.389 C 222.860 144.380,224.120 144.025,225.000 143.600 C 225.880 143.175,227.050 142.813,227.600 142.796 C 228.150 142.779,229.320 142.489,230.200 142.152 C 231.080 141.815,232.835 141.305,234.099 141.020 C 235.363 140.734,236.623 140.320,236.899 140.100 C 237.175 139.881,238.300 139.574,239.400 139.419 C 240.500 139.264,241.764 138.904,242.209 138.619 C 242.654 138.334,243.824 137.970,244.809 137.811 C 245.794 137.651,247.388 137.178,248.351 136.760 C 249.314 136.342,250.626 136.000,251.267 136.000 C 251.908 136.000,253.138 135.640,254.000 135.200 C 254.862 134.760,256.070 134.396,256.684 134.391 C 257.298 134.386,258.526 134.053,259.413 133.650 C 260.300 133.247,261.905 132.785,262.980 132.624 C 264.054 132.463,265.308 132.086,265.767 131.786 C 266.225 131.486,267.410 131.112,268.400 130.954 C 269.390 130.797,270.920 130.342,271.800 129.943 C 272.680 129.544,273.943 129.214,274.606 129.209 C 275.269 129.204,276.439 128.868,277.206 128.461 C 277.973 128.055,279.456 127.608,280.503 127.469 C 281.550 127.329,282.810 126.961,283.303 126.651 C 283.796 126.340,285.085 125.962,286.167 125.809 C 287.248 125.656,288.520 125.278,288.993 124.968 C 289.465 124.658,290.740 124.292,291.826 124.155 C 292.912 124.017,294.177 123.670,294.637 123.384 C 295.098 123.098,296.518 122.671,297.792 122.435 C 299.067 122.200,300.330 121.824,300.600 121.600 C 300.870 121.376,302.150 121.001,303.445 120.766 C 304.740 120.531,306.160 120.109,306.600 119.828 C 307.040 119.547,308.300 119.187,309.400 119.028 C 310.500 118.868,311.804 118.478,312.297 118.162 C 312.790 117.845,314.050 117.473,315.097 117.336 C 316.144 117.199,317.668 116.752,318.484 116.343 C 319.300 115.934,320.470 115.596,321.084 115.591 C 321.698 115.586,322.985 115.226,323.944 114.791 C 324.903 114.356,326.163 113.996,326.744 113.991 C 327.325 113.986,328.540 113.646,329.444 113.236 C 330.348 112.825,331.878 112.358,332.844 112.197 C 333.810 112.037,335.054 111.673,335.608 111.390 C 336.163 111.106,337.672 110.679,338.963 110.441 C 340.254 110.202,341.510 109.842,341.755 109.640 C 342.000 109.439,343.260 109.079,344.555 108.840 C 345.850 108.602,347.130 108.224,347.400 108.000 C 347.670 107.776,348.950 107.398,350.245 107.160 C 351.540 106.921,352.800 106.561,353.045 106.360 C 353.290 106.158,354.550 105.801,355.845 105.566 C 357.140 105.331,358.560 104.911,359.000 104.632 C 359.440 104.353,360.599 104.000,361.575 103.846 C 362.551 103.692,363.901 103.320,364.575 103.019 C 366.848 102.003,368.395 101.729,368.915 102.248 M56.538 156.885 C 55.811 157.855,54.764 160.611,54.211 163.006 C 52.178 171.814,52.748 171.082,46.420 173.021 C 41.262 174.602,38.461 175.488,33.896 176.983 C 32.190 177.542,30.544 178.000,30.240 178.000 C 29.936 178.000,28.903 178.356,27.944 178.791 C 26.985 179.226,25.785 179.586,25.278 179.591 C 24.771 179.596,23.601 179.940,22.678 180.356 C 21.755 180.771,20.194 181.244,19.209 181.406 C 18.224 181.568,17.054 181.939,16.609 182.230 C 16.164 182.521,14.990 182.884,14.000 183.036 C 13.010 183.188,11.532 183.647,10.716 184.056 C 9.900 184.465,8.749 184.800,8.160 184.800 C 7.570 184.800,6.348 185.149,5.444 185.576 C 4.540 186.003,2.945 186.464,1.900 186.601 L 0.000 186.849 0.008 200.125 L 0.016 213.400 1.908 214.246 C 2.949 214.711,4.578 215.210,5.528 215.355 C 6.479 215.500,7.649 215.870,8.128 216.178 C 8.608 216.486,9.858 216.863,10.906 217.015 C 11.955 217.168,13.478 217.632,14.291 218.046 C 15.104 218.461,16.226 218.804,16.785 218.809 C 17.343 218.814,18.526 219.147,19.413 219.550 C 20.300 219.953,21.851 220.407,22.859 220.558 C 23.867 220.709,25.031 221.090,25.446 221.404 C 25.861 221.718,26.530 221.980,26.933 221.987 C 27.336 221.994,28.956 222.424,30.533 222.943 C 32.110 223.461,34.930 224.357,36.800 224.934 C 44.267 227.236,50.643 229.261,51.424 229.579 C 52.231 229.907,53.319 233.250,54.451 238.883 C 54.660 239.919,55.092 241.269,55.413 241.883 C 55.733 242.498,55.996 243.491,55.998 244.092 C 55.999 244.692,56.290 245.909,56.645 246.796 L 57.290 248.408 55.762 250.304 C 54.922 251.347,53.866 252.569,53.417 253.020 C 52.968 253.471,50.710 255.890,48.400 258.396 C 46.090 260.902,43.750 263.429,43.200 264.014 C 40.645 266.727,36.655 271.023,33.000 274.996 C 30.800 277.388,28.724 279.627,28.386 279.972 C 28.048 280.317,26.032 282.502,23.905 284.826 C 19.579 289.554,19.765 288.718,22.131 292.800 C 22.705 293.790,23.463 295.140,23.815 295.800 C 24.167 296.460,24.848 297.655,25.327 298.456 C 26.619 300.611,31.719 309.477,32.322 310.615 C 32.934 311.771,34.800 311.945,36.952 311.046 C 37.681 310.741,39.250 310.368,40.439 310.217 C 41.628 310.066,43.636 309.596,44.902 309.171 C 46.167 308.747,47.826 308.400,48.587 308.400 C 49.348 308.400,50.884 308.040,52.000 307.600 C 53.116 307.160,54.630 306.800,55.363 306.800 C 56.096 306.800,57.823 306.440,59.200 306.000 C 60.577 305.560,62.112 305.200,62.610 305.200 C 63.108 305.200,64.660 304.852,66.058 304.428 C 67.456 304.003,69.500 303.531,70.600 303.378 C 71.700 303.226,73.146 302.879,73.812 302.608 C 74.479 302.336,76.099 301.981,77.412 301.818 C 78.726 301.655,80.430 301.259,81.200 300.938 C 81.970 300.617,83.680 300.257,85.000 300.139 L 87.400 299.925 93.949 306.539 L 100.498 313.154 100.207 315.870 C 100.047 317.364,99.592 319.670,99.197 320.993 C 98.801 322.317,98.356 324.270,98.209 325.333 C 98.062 326.397,97.684 327.994,97.370 328.884 C 97.057 329.773,96.800 331.014,96.800 331.642 C 96.800 332.270,96.456 333.912,96.035 335.292 C 95.206 338.008,94.198 342.387,93.524 346.200 C 93.291 347.520,92.762 349.636,92.350 350.902 C 91.937 352.167,91.600 353.742,91.600 354.400 C 91.600 355.058,91.256 356.633,90.836 357.898 C 90.415 359.164,89.960 361.135,89.825 362.277 C 89.689 363.419,89.318 364.978,88.999 365.741 L 88.419 367.129 90.510 368.419 C 91.659 369.129,93.088 370.045,93.684 370.455 C 94.280 370.865,94.848 371.200,94.946 371.200 C 95.044 371.200,96.438 372.010,98.044 373.000 C 99.649 373.990,101.094 374.800,101.253 374.800 C 101.413 374.800,102.591 375.482,103.872 376.316 C 105.152 377.150,106.650 378.059,107.200 378.337 C 107.750 378.615,108.899 379.205,109.754 379.649 L 111.308 380.457 112.903 378.929 C 113.780 378.088,115.250 376.680,116.169 375.800 C 117.089 374.920,119.792 372.400,122.177 370.200 C 124.562 368.000,127.280 365.480,128.218 364.600 C 129.627 363.278,135.694 357.602,140.403 353.200 C 140.991 352.650,142.983 350.850,144.829 349.200 C 146.675 347.550,148.567 345.840,149.035 345.400 C 152.020 342.589,151.701 342.730,153.583 343.394 C 154.527 343.727,155.732 344.000,156.260 344.000 C 156.788 344.000,158.244 344.360,159.496 344.800 C 163.613 346.247,164.642 345.910,163.769 343.399 C 163.463 342.520,163.093 340.900,162.946 339.800 C 162.799 338.700,162.346 336.827,161.939 335.637 C 161.533 334.448,161.192 333.008,161.182 332.437 C 161.173 331.867,160.903 330.680,160.582 329.800 C 160.262 328.920,159.801 326.940,159.558 325.400 C 159.315 323.860,158.951 322.396,158.748 322.146 C 158.545 321.897,158.123 320.238,157.810 318.459 C 157.498 316.681,157.070 314.905,156.860 314.513 C 156.651 314.121,156.356 312.900,156.206 311.800 C 156.056 310.700,155.588 308.764,155.167 307.498 C 154.745 306.233,154.400 304.950,154.400 304.647 C 154.400 302.914,153.316 303.348,150.019 306.404 C 146.806 309.382,145.072 310.364,144.542 309.506 C 144.410 309.293,143.739 308.858,143.051 308.540 C 142.363 308.222,139.730 306.748,137.200 305.266 L 132.600 302.570 132.473 300.812 C 132.404 299.845,132.700 297.871,133.131 296.427 C 133.562 294.982,134.114 292.855,134.358 291.700 C 135.521 286.179,135.744 285.222,136.447 282.738 C 136.861 281.274,137.200 279.603,137.200 279.025 C 137.200 278.447,137.578 276.855,138.041 275.487 C 139.744 270.448,139.555 269.776,135.200 265.395 C 130.794 260.962,130.505 260.842,126.943 261.959 C 125.470 262.422,123.698 262.800,123.004 262.800 C 122.310 262.800,120.945 263.070,119.971 263.399 C 118.997 263.729,116.850 264.260,115.200 264.579 C 109.931 265.600,106.255 266.400,104.200 266.976 C 99.139 268.392,98.022 268.152,96.492 265.316 C 96.112 264.611,94.990 262.654,94.000 260.968 C 90.438 254.902,90.426 254.876,91.041 254.366 C 91.349 254.111,91.600 253.720,91.600 253.498 C 91.600 253.276,92.192 252.533,92.915 251.847 C 93.639 251.161,95.835 248.800,97.797 246.600 C 99.758 244.400,103.190 240.710,105.424 238.400 C 113.524 230.024,113.608 229.909,112.755 228.315 C 112.485 227.812,112.040 226.320,111.764 225.000 C 110.466 218.781,109.924 218.123,105.000 216.791 C 99.641 215.341,96.659 214.489,95.400 214.051 C 93.354 213.337,90.289 212.385,88.200 211.813 C 87.100 211.512,85.480 210.989,84.600 210.650 C 83.720 210.312,82.678 210.027,82.284 210.018 C 81.407 209.996,78.310 208.460,77.906 207.846 C 77.549 207.304,77.500 194.999,77.848 193.259 C 78.059 192.206,78.317 191.983,79.548 191.787 C 80.347 191.660,81.630 191.271,82.400 190.923 C 83.170 190.576,84.790 190.091,86.000 189.846 C 89.926 189.050,89.717 188.679,79.937 179.086 C 75.242 174.480,68.143 167.485,64.162 163.541 C 58.753 158.182,56.826 156.500,56.538 156.885 M340.000 161.287 C 335.211 165.855,319.850 180.638,315.439 184.924 C 311.167 189.073,310.885 190.000,313.892 190.000 C 314.409 190.000,315.500 190.335,316.316 190.744 C 317.132 191.154,318.591 191.590,319.558 191.714 C 321.977 192.024,321.987 192.060,321.994 200.493 L 322.000 207.987 320.088 208.956 C 319.036 209.489,317.323 210.053,316.281 210.209 C 315.240 210.365,313.722 210.832,312.909 211.246 C 312.096 211.661,310.974 212.004,310.415 212.009 C 309.857 212.014,308.615 212.374,307.656 212.809 C 306.697 213.244,305.707 213.599,305.456 213.598 C 304.975 213.596,300.731 214.888,294.415 216.959 C 290.838 218.132,290.604 218.277,290.169 219.600 C 289.916 220.370,289.488 221.630,289.216 222.400 C 288.945 223.170,288.493 224.835,288.212 226.099 C 287.930 227.363,287.475 228.668,287.201 228.999 C 286.630 229.687,287.728 231.197,292.591 236.412 C 301.254 245.703,305.554 250.286,306.806 251.565 C 309.063 253.869,309.751 255.136,309.142 255.869 C 308.861 256.208,308.444 256.814,308.216 257.216 C 301.371 269.240,302.055 268.703,295.800 266.970 C 293.734 266.398,290.008 265.588,284.800 264.579 C 283.150 264.260,281.003 263.729,280.029 263.399 C 279.055 263.070,277.705 262.798,277.029 262.795 C 276.353 262.792,274.659 262.432,273.264 261.995 C 269.486 260.811,269.483 260.812,265.144 265.075 L 261.200 268.950 261.200 271.189 C 261.200 272.420,261.560 274.452,262.000 275.704 C 262.440 276.956,262.800 278.582,262.800 279.319 C 262.800 280.055,263.070 281.455,263.399 282.429 C 263.729 283.403,264.258 285.550,264.576 287.200 C 265.435 291.665,266.382 295.918,267.082 298.464 C 267.835 301.202,267.562 302.552,266.100 303.316 C 265.495 303.632,263.560 304.735,261.800 305.766 C 258.010 307.986,257.322 308.391,256.000 309.177 C 254.503 310.067,253.653 309.740,251.142 307.311 C 247.093 303.395,245.008 301.601,244.644 301.720 C 244.162 301.879,242.566 306.699,242.210 309.071 C 242.052 310.126,241.691 311.442,241.409 311.995 C 241.126 312.548,240.770 313.810,240.618 314.800 C 240.467 315.790,239.995 317.636,239.571 318.902 C 239.147 320.167,238.800 321.636,238.800 322.166 C 238.800 322.696,238.460 324.090,238.044 325.264 C 237.628 326.439,237.099 328.300,236.868 329.400 C 236.637 330.500,236.081 332.840,235.633 334.600 C 235.185 336.360,234.536 338.970,234.190 340.400 C 233.844 341.830,233.386 343.562,233.173 344.248 C 232.650 345.934,233.065 346.936,234.155 346.618 C 234.620 346.482,236.170 346.120,237.600 345.814 C 239.030 345.507,240.920 344.981,241.800 344.645 C 242.680 344.310,243.782 344.027,244.250 344.018 C 244.717 344.008,245.813 343.748,246.686 343.440 L 248.272 342.881 250.064 344.540 C 255.880 349.925,260.795 354.517,263.132 356.747 C 270.486 363.768,272.113 365.296,275.968 368.806 C 278.260 370.893,281.770 374.177,283.768 376.104 C 288.568 380.735,288.562 380.734,293.400 377.819 C 294.280 377.289,295.540 376.566,296.200 376.213 C 296.860 375.861,298.120 375.129,299.000 374.589 C 299.880 374.048,301.140 373.322,301.800 372.975 C 302.460 372.629,303.720 371.914,304.600 371.387 C 305.480 370.860,307.010 369.979,308.000 369.429 C 311.499 367.484,311.758 367.153,311.068 365.500 C 310.736 364.707,310.334 363.009,310.175 361.729 C 310.016 360.448,309.551 358.427,309.143 357.237 C 308.734 356.048,308.400 354.558,308.400 353.927 C 308.400 353.296,308.040 351.756,307.600 350.504 C 307.160 349.252,306.792 347.591,306.782 346.814 C 306.773 346.036,306.503 344.680,306.182 343.800 C 305.862 342.920,305.400 340.940,305.157 339.400 C 304.913 337.860,304.542 336.277,304.333 335.882 C 304.124 335.487,303.716 333.867,303.427 332.282 C 303.138 330.697,302.704 328.590,302.463 327.600 C 302.222 326.610,301.738 324.630,301.388 323.200 C 298.946 313.223,298.651 314.198,306.476 306.373 L 312.948 299.901 315.292 300.147 C 316.582 300.281,317.956 300.563,318.347 300.772 C 318.738 300.981,320.304 301.353,321.829 301.599 C 323.353 301.845,325.050 302.232,325.600 302.461 C 326.150 302.689,327.860 303.108,329.400 303.392 C 332.352 303.937,335.900 304.767,340.692 306.035 C 342.282 306.456,344.099 306.800,344.729 306.800 C 345.359 306.800,346.921 307.160,348.200 307.600 C 349.479 308.040,351.043 308.400,351.675 308.400 C 352.308 308.400,353.855 308.742,355.113 309.159 C 356.371 309.577,358.390 310.047,359.600 310.204 C 360.810 310.360,362.407 310.739,363.149 311.044 C 365.398 311.971,367.080 311.774,367.806 310.500 C 368.150 309.895,368.862 308.680,369.388 307.800 C 369.914 306.920,370.686 305.570,371.105 304.800 C 371.968 303.210,372.915 301.567,374.791 298.403 C 375.507 297.195,376.262 295.845,376.467 295.403 C 376.673 294.961,377.275 293.880,377.805 293.000 C 380.242 288.952,380.169 289.228,379.118 288.056 C 374.117 282.483,366.047 273.812,362.362 270.051 C 362.010 269.693,360.769 268.320,359.603 267.000 C 358.437 265.680,355.844 262.887,353.842 260.793 C 341.215 247.595,341.964 248.613,343.025 246.087 C 343.368 245.269,343.899 243.430,344.203 242.000 C 346.649 230.515,347.065 229.845,352.800 228.151 C 355.330 227.404,359.200 226.240,361.400 225.563 C 363.600 224.887,366.390 224.084,367.600 223.780 C 368.810 223.476,370.160 223.050,370.600 222.833 C 371.346 222.466,372.251 222.202,378.300 220.585 C 379.565 220.247,381.050 219.732,381.600 219.439 C 382.150 219.147,383.378 218.789,384.328 218.645 C 385.279 218.500,386.449 218.125,386.928 217.811 C 387.408 217.497,388.610 217.114,389.600 216.959 C 390.590 216.805,392.027 216.346,392.794 215.939 C 393.561 215.533,394.641 215.202,395.194 215.203 C 395.747 215.205,397.055 214.803,398.100 214.309 L 400.000 213.411 400.000 200.130 L 400.000 186.849 398.100 186.567 C 397.055 186.413,395.573 185.952,394.806 185.543 C 394.039 185.134,392.959 184.794,392.406 184.786 C 391.853 184.779,390.680 184.425,389.800 184.000 C 388.920 183.575,387.789 183.221,387.287 183.214 C 386.785 183.206,385.705 182.911,384.887 182.559 C 384.069 182.206,382.500 181.679,381.400 181.387 C 380.300 181.095,378.500 180.567,377.400 180.213 C 376.300 179.859,374.140 179.192,372.600 178.730 C 371.060 178.268,368.810 177.579,367.600 177.198 C 365.068 176.402,360.497 175.035,354.200 173.193 C 348.167 171.428,347.347 171.053,347.101 169.943 C 346.535 167.384,345.505 163.651,345.019 162.400 C 344.720 161.630,344.257 160.415,343.989 159.700 C 343.358 158.013,343.485 157.963,340.000 161.287 " stroke="none" fill="#889aa4" fill-rule="evenodd"></path></g></svg>